<mxfile host="app.diagrams.net" agent="Mozilla/5.0 (Windows NT 10.0; Win64; x64) AppleWebKit/537.36 (KHTML, like Gecko) Chrome/133.0.0.0 Safari/537.36" version="26.0.16">
  <diagram name="Page-1" id="8ftBkJPZ-B586tNaUoUR">
    <mxGraphModel dx="1434" dy="738" grid="1" gridSize="10" guides="1" tooltips="1" connect="1" arrows="1" fold="1" page="1" pageScale="1" pageWidth="1654" pageHeight="2336" math="0" shadow="0">
      <root>
        <mxCell id="0" />
        <mxCell id="1" parent="0" />
        <mxCell id="GT2eNSXrST343m5673Si-3" value="" style="edgeStyle=orthogonalEdgeStyle;rounded=0;orthogonalLoop=1;jettySize=auto;html=1;" parent="1" source="GT2eNSXrST343m5673Si-1" target="GT2eNSXrST343m5673Si-2" edge="1">
          <mxGeometry relative="1" as="geometry" />
        </mxCell>
        <mxCell id="GT2eNSXrST343m5673Si-1" value="CASC" style="rounded=0;whiteSpace=wrap;html=1;" parent="1" vertex="1">
          <mxGeometry x="120" y="220" width="120" height="60" as="geometry" />
        </mxCell>
        <mxCell id="GT2eNSXrST343m5673Si-5" value="" style="edgeStyle=orthogonalEdgeStyle;rounded=0;orthogonalLoop=1;jettySize=auto;html=1;" parent="1" source="GT2eNSXrST343m5673Si-2" target="GT2eNSXrST343m5673Si-4" edge="1">
          <mxGeometry relative="1" as="geometry" />
        </mxCell>
        <mxCell id="GT2eNSXrST343m5673Si-2" value="&lt;ul style=&quot;box-sizing: border-box; padding: 0px 0px 0px 40px; outline: none; font-family: &amp;quot;Segoe UI VSS (Regular)&amp;quot;, &amp;quot;Segoe UI&amp;quot;, -apple-system, BlinkMacSystemFont, Roboto, &amp;quot;Helvetica Neue&amp;quot;, Helvetica, Ubuntu, Arial, sans-serif, &amp;quot;Apple Color Emoji&amp;quot;, &amp;quot;Segoe UI Emoji&amp;quot;, &amp;quot;Segoe UI Symbol&amp;quot;; font-size: 14px; text-align: start; background-color: rgb(255, 255, 255);&quot;&gt;&lt;li style=&quot;box-sizing: border-box; list-style: inherit; outline: none;&quot;&gt;&lt;span style=&quot;box-sizing: border-box; outline: none;&quot;&gt;YNG - 16-25 - This should map to &#39;&lt;span style=&quot;box-sizing: border-box; color: rgba(0, 0, 0, 0.9); font-size: 15px;&quot;&gt;NR Railcard&#39; discount entitlement&lt;/span&gt;&lt;/span&gt;&lt;/li&gt;&lt;li style=&quot;box-sizing: border-box; list-style: inherit;&quot;&gt;TST - 26-30 - &#39;&lt;span style=&quot;box-sizing: border-box; color: rgba(0, 0, 0, 0.9); font-size: 15px;&quot;&gt;NR Railcard&#39;&lt;/span&gt;&lt;/li&gt;&lt;li style=&quot;box-sizing: border-box; list-style: inherit;&quot;&gt;DIS - Disabled - &#39;&lt;span style=&quot;box-sizing: border-box; color: rgba(0, 0, 0, 0.9); font-size: 15px;&quot;&gt;NR Disabled Railcard&#39;&lt;/span&gt;&lt;/li&gt;&lt;li style=&quot;box-sizing: border-box; list-style: inherit;&quot;&gt;VET - Veteran - &#39;&lt;span style=&quot;box-sizing: border-box; color: rgba(0, 0, 0, 0.9); font-size: 15px;&quot;&gt;NR Railcard&#39;&lt;/span&gt;&lt;/li&gt;&lt;li style=&quot;box-sizing: border-box; list-style: inherit;&quot;&gt;SRN - Senior - &#39;&lt;span style=&quot;box-sizing: border-box; color: rgba(0, 0, 0, 0.9); font-size: 15px;&quot;&gt;NR Disabled Railcard&#39;&lt;/span&gt;&lt;/li&gt;&lt;/ul&gt;" style="whiteSpace=wrap;html=1;rounded=0;" parent="1" vertex="1">
          <mxGeometry x="510" y="220" width="450" height="170" as="geometry" />
        </mxCell>
        <mxCell id="GT2eNSXrST343m5673Si-18" style="edgeStyle=orthogonalEdgeStyle;rounded=0;orthogonalLoop=1;jettySize=auto;html=1;entryX=0;entryY=0.5;entryDx=0;entryDy=0;" parent="1" source="GT2eNSXrST343m5673Si-4" target="GT2eNSXrST343m5673Si-17" edge="1">
          <mxGeometry relative="1" as="geometry" />
        </mxCell>
        <mxCell id="GT2eNSXrST343m5673Si-22" value="" style="edgeStyle=orthogonalEdgeStyle;rounded=0;orthogonalLoop=1;jettySize=auto;html=1;" parent="1" source="GT2eNSXrST343m5673Si-4" target="GT2eNSXrST343m5673Si-21" edge="1">
          <mxGeometry relative="1" as="geometry" />
        </mxCell>
        <mxCell id="GT2eNSXrST343m5673Si-4" value="CCIS" style="whiteSpace=wrap;html=1;rounded=0;" parent="1" vertex="1">
          <mxGeometry x="420" y="560" width="120" height="60" as="geometry" />
        </mxCell>
        <mxCell id="GT2eNSXrST343m5673Si-6" value="Actor" style="shape=umlActor;verticalLabelPosition=bottom;verticalAlign=top;html=1;outlineConnect=0;" parent="1" vertex="1">
          <mxGeometry x="190" y="140" width="30" height="60" as="geometry" />
        </mxCell>
        <mxCell id="GT2eNSXrST343m5673Si-12" value="Master Data" style="whiteSpace=wrap;html=1;verticalAlign=top;labelBackgroundColor=default;" parent="1" vertex="1">
          <mxGeometry x="1330.0000000000002" y="647.54" width="120" height="60" as="geometry" />
        </mxCell>
        <mxCell id="GT2eNSXrST343m5673Si-19" style="edgeStyle=orthogonalEdgeStyle;rounded=0;orthogonalLoop=1;jettySize=auto;html=1;" parent="1" source="GT2eNSXrST343m5673Si-17" target="GT2eNSXrST343m5673Si-12" edge="1">
          <mxGeometry relative="1" as="geometry" />
        </mxCell>
        <mxCell id="GT2eNSXrST343m5673Si-17" value="" style="shape=image;verticalLabelPosition=bottom;labelBackgroundColor=default;verticalAlign=top;aspect=fixed;imageAspect=0;image=data:image/png,iVBORw0KGgoAAAANSUhEUgAAAwcAAAEACAYAAADmwgreAAAAAXNSR0IArs4c6QAAAARnQU1BAACxjwv8YQUAAAAJcEhZcwAADsMAAA7DAcdvqGQAAIKdSURBVHhe7N13eBzXeej/72zvi8WidxBg710SRarYkix3S26xLSd27PTuxEnu/d1ESe51HKc7Lonj2I7juElRrxRJsfcOFvTe62J7m5nfHwBIYAmSgESKJPB+nmcfElN3p5xz3nPOzFE6gr06d5w78CsL8Y64Pe8NJeObKZP+f3t5u8dvduvP7jjMbtuXXX29We1/2s1MO/EKV9/PzNafcM3tzGJTymwWznD5O1x/G1d+3+uvM51pv+80k64yEab9Llxzea5Y59rLTuctrX/FYpcnTP8bMl2xgSmyspfz53/+51Om/cVf/AWjw+cnTbn2NjJNe35mbGa/6qr0zPUn/p7pd8pc/2Z4J/bxds3keE33O2ay3oSZnhtlBstMM3+6rzc+cZqlr0npHOy55jrBYDBz0hQejydz0hSyvqx/LbL+jVz/ylt5dutf6Uatn5kkTvw90/Wv5savP/UYzn79qW7s+lee39mtfyXv21zf43FnTpoi8/xnervf//L60wcHoWnW12/Y9adfd/3p9j/Z9da/vP9pftws1r/68Z/Z+bua6+1/6u+/8jdMu/6kxd7a/i9vYLr1//nr/3rp/1ar9dL///iPfvfS/ydMt/5k0+//stt/fW/mpCmuv/7b3b+sfy3XX38m9+/V7v5r71/Rdf3KO1bcEIFAALfbjdFozJwlbrJkMomqqtjt9sxZYg6IxWIYjUYsFkvmLHGHCwaDOBwOTCZT5iwxC5qmEYvFsNlskgfNQ+l0mlgshtt97QKkENMxZE4QQgghhBBCzE8SHAghhBBCCCFAggMhhBBCCCHEBAkOhBBCCCGEECDBgRBCCCGEEGKCBAdCCCGEEEIIkOBACCGEEEIIMeHSOAdaOklgoIdAND02SIzRSnZuHl6n5RpDKIhrkXEObp2ZjXOgk4qFGR4cJJzUADAYrTi9WWR7nZgMCqTjDA0Ok7b7yfVYMcjNcFuQcQ7mrhmPc5COM9DfRzCWBkAxGLG7s8jO8mA1XaveSyUaGGIkbiQ72wOJEEMhDX+OD7tlpmm1jpaKMzI4QDCaQsOA1eEhJ8+PbaabuMlmPc6BGmeov5/RaApdMWJ3+8jxe7Fc61DeLLpOPDzMSCiOIzsfr82ErqYJB/oJJIx4/bl4rAa0VIyRoSFS1iz8XhfmWXxXLR1nqHcQozcXn9t6qZyjpRMEhwMkjE5y/a5Z1KDqJMMj9A8FSKR1UIw4swsoyLJlLviOmOk4B2oqRmBwkNFocmz4OMWI0+MnJ9s1lgfeQLqaJBQYZiQYJa3pGKxO/H4/Hrs5c9Gr0uOjdPYHcOaWkW2/sd9PXGZ88sknnwRIRYY5sesljjf2Ehjpp/H8OTpCBvy5ObisM0hYxBXi8ThWqxWDYebJi7gxVFVF13XM5mslOhrBnkYO7NjD+Y5Bhvs7qK9voKWzj5jZS47XiSHWy6Hdb9KkFVKd78Z4C0+lrsUYbG6iaVDD73fOItOae9LpNAaDYWaFHnFHSSQSmM3m66abWriHA2++xpH6ISLDvTTXXaShrYtw0oy/IAfr1VZXI7ScPsy+miFyivzEOs+x63gX/qJifM5rpRcTdJKhPs4dP8LhQ4c439JJR1sbPUNxssoq8FlujwKLruuk02lMJtN1jyXJIc4dOczBw4eobemkvbmB2pY+0ljx+X3MpgigayrB/jY6ByOY7S6sptkfD11XGWk7x/6jp4g4SinzO0jHRqg9vItdpzuw+Mso8lmID7VxdPd+uvQsiguyr37Or6CTjPRy8JWdDFuLKM53Y1TGp4eHOH/4CPXDBsorcjErM/j+eorhzkZOHtnP/mMXaO/qoLW5iT7yWVaSxUw2caNpmkY6nZ4yCvSVdOKBXk7t3c3Jug5GRkcYGAigmZz4s91YbliGp5OOB+msO8Ohg0c4fbGR9vZWmnuDWL25FGY5ZniMdNSBczz18m7ShRso9yozXE/M1qUzr6sq0VACT3E1G+/ZwqY1Cxg5d5SL7QOM1csIMfdoqQShqIG8Bau4+9572bJ5DXn0c2j7y5ztDJI2ealasZblxW6uWRn5DtC0AGff3MXuE10kM2cKMd9oaSKRENbSldxz7xa23L2J6myNs4f3s/dsD6nM5ScoVvxli1i3qppsp4l0IkYgGCGVVjOXnJaWClJ3/BB7j7aTtfRutm7dxtatW9iwooqsmZdObyMpuk4f4JXtp7FUb2TL1m3cu2UzS/wRju3YzZmmwasfy2no6QTd9cc4fKaWochbKz0oioLVbiMRjdLZOwK6TjI6QldnL10tXfT1DpPQVSLBIbpHdJw226wCGABNSxEZHSWWGOstMUHX0sTCYcITNenXpRMd6uDonh2cG3WzavO9bN26jW333s2KMh+3e9cLTU0RiWq4CqrZdM89bLl7I0sq87GbZ3lAr0FPJ+lvPsOBYzWEnRVsuudetm3bypZ1yyjOnmlgMEZPxwkERoil9RmeH/FWXGo5UONhWi7WYSxZysrFleT4PAw3nmDYXspCX4wDr21n35FjnL7QRsKSTVGOk1RkkNrj+9n55n5Onm0iavLgc6m0njnIzl37OH62jqDuIttrJ9pTy+4dOzl4/DStgwncvmzc9hQnXn6Bmo5BOi4eY8++/TSMOigpzcFm0IgNNfHmiy+w58R5Wvs6aTh8iosjdirLvaQCPZw7vIftew5wobGTtNWLz6vQceoA2w+dp7vlPHVdo9h9eXhuUTuvtBzcOjNrOdCJjfTS2DKMf9EKli8sIS8vn+JcK501p2inmCW5Co0XT9FjLKHCbyXQcY4339jBwWMnuNgWJ6+yBLsWpr3mEK+9toNjZy/SFzOSk51FeqSNo3veYNe+o9Q0dBI3ucj1OYkNt7Bvz2lGFReF2Q5Cgw28+eZpElYvuVlBdj/1KnX9AVrOHmbvvkN0pv2U5Wic3bebA6fqGR4dZDiSxJNTRJb91lzbt5q0HMxdM2050OMB6mpr0Us2cc+SIrJz8sjL9ZHqPU9NW5rKJWWke2rZv/dN9h06yvnmPnBm4/MoDDXVcqY1Sl6hH3Wki/qeNNWL/DTu3Eltv0ZOoR+r0UDXiZfZeX4If2EJTrMCuk6kr5HDh0/iXPUQj9y9kuI8P35/Dn5/Fnajzkh3PYf37GLfwaPU1PdgcPrxWZM0nt7HvrpeRjvqOLBvH2eb+rF4ssl22wgPNnHozZ3sO3SUkxeH8C8ox/s2+/PMtOVAD3fyxo599Je+m194aB2l+Tnk5ORTmJtFuO0ILUFQB5o5drYDd1k5HkOSvubT7Dpah+rMR+s/y4E9b3LgyGnaRhUSPWc5fvIMzR39dLWM4q4oxGNM0HzmEDve3Mvxk2cZTHrIz/Ni7D/Ffz79Kv3BGBeP15D2+PF77BgUBV1PMdzczmDEyoJlxSS7m6hvH0Q1pklbsygv8RPqrKUpaGbxsqXk2dJj5Yg3d3PoeA39cTs5OVlYDTqRnjp2vfQS+0+co7k3gtvvx0GEhjP1WIqXUOiMcWbncxxui+D0eBjtbCds8ZFDF0cOnCJqy8bndWAYbWDn7kP0pT3kep2YjAqoCTouHmZ/h4F773+ADcvKyfX78efkkeuxoaspWk/vZPubB8aOS8BAboEfJdbD0d0HOdM5QqDhCLv2H6ctkMaT7cdlVOmqP8He3Xs4ePQMnTE7eTlZ2GbRb2pmLQeQjARoa+7BlFvJquXleF1ObFYj4b5GDu7eyf5Dxzhb1wkOH36Pg2DDLl7YV0N3cwNHjvaQs7wEtaeR/W/uYP+Rk9R2BXH58/A4zJfiomSkn7PHzjBkKuWBB+9mUXkhOf4ccv0+XDYzupZisL2WfW/uYt/hI5yt78LgySPLZcOISn/9Pl55cSdHL7QQi4dp7hyicMW9VHs1QgNtHNq9nd0HT9DQMYTZlY3XZZMuwG/TVa40nWQ4QCCm4HTYUaLDhD0VrN2wnhJzgOO7j9CZStHTdJ7jZ3rIqVrBmkXF2JNR+lrOcuR8O/byVaxbVo7LrDPcdp49+04SdVeyakUVWs8Fjp1rJpJKMdLRyIW6dpSsMhaXmGk8/AbHGgKkI30ceOU1zo/YKKuqxpsaoaGlme6BMPHIIOdOHOHioIGl6zZQ7oxx8fhxWvtHCA330XGhgbi7klUrlpDrulbhUIhMBuw5JSzIcZHq7ycWDzPY20HPaJJkdITju3YzaCpi0+b1FNuTJJIJui4eY/uRehR/NcuWVZPjthAdbGP/G69xfsREefVC8swBju3fz+nmYeKJEH29/YyEEwCkEiF6uvoZjaRAj9PX0kR9Yzf2vEoW+FOc3fMSp7sNFJYVkW2zYvWUsLi6nKxbFPQKcVtSFKyOLCpLsomHOhkIaqRSGlnF1WzesAJXvJNTpy4yGIwSGRmks3uIaHJya4EDlyNMa2crg8Ekuhai4VwDcd3F5S7RGuFAgFDcy+KFhTiueCxCJZlU8eZVsHbNElyxFg6eOE/vcJTQUC+1p2voiDkoKSuGwVr2HqtlKBTl/N43aR61sXzdOqq9OlO+1k2WHB1iKKSyfM1iPBMBiaJgcfqpqMglFo6gKho9HU3Ud8VIJaP0tncwGtZwpdo4efwkA8ZCVqxYTLbTijO7hHy/G3d2PlVLqvFbjXTWHOLIxUEKl6xj87J8Wo7v5ETDIKnYCE2NzbT26Sy7axMVuZ7xQomCxeqhqMBGKtpLTzDF0FAAo7eQZQvyiA0PMTIcZnQogN3txus20197iINnO3CVL2P9Ej9dJ17naF0/o13neOG1gwT8S9m4cRmm4Qu8eayRpKaPtUhEhqg/c5CjvTp5pQvwO5TxQq0Bp9NGNNhPc+cQyWSKobZ6unvDWG1mjOPdpbR0kpGBflz5xZTkTnRPukzXNFJpAwtWrmP1Ah/tJ/Zw+GI/qXSUwbZGai80ELEWUp7vpLf+NMdrWhntvcixkzVEXaWsWl6F22JC025iPbmWYHS4m+bGRppa28fukVAce3Ylazeswq/3cOhkHYFYmmSwn9raVhKeSrY9uBpnqJODu/cQsBSPXfOBcxw8eJrB2NhzfADpSIDhZJqs4nJy3dYrCp7R3hr27TnKkO5l0ZJF5KS7OfTGHhr7QwSaj/LMy6cIOktYWlVAoLeXZDKFruvEA50c3X+YHj2XdRvWkaX2c+zYWQZCcWlVeJsyzlGc7oYa9u/Zza7de+i3llNdkoMlu5IVhXaio4NEkjHCwV6Go2PNcvFkhHA0haukmsWLi7FqaVKxGOFQFJO/koUlXiKDbbQMRklGAwwNjhCJjNDaPUg0qYFiIbuwimWrV7H+vvso10bp7x0m0t9ETXeC6m3v5d6Na1m3YS0VPsfYg0ojPbS2tzMaixHo7yMQihAY6aE3EEPVwegpobKigsKcrLfU31HMcwYjZsWAgjL1BtE11FSSSGiUsOZmxd2byNOHaWhoRi9Yx6Pvvpt1q9eyqqoAfbSFumEzC9ffzz2bN7J5/WqKtX7aOnsIXy/jN1rJKV3EytWruOuBjXjCI3SNJMkrLcFvtWLLKmPhghI8tswkVoh5TgGD0QToGAwmPDn5ZNuNjI4EiccSRIcDRJNppuuQoChmCqoWYo4HGR4JoQ5eoHHEStmCUhzj+YiOTjqloio2bNPW7Jvw+vPwua1Ew2ESySSB4REi8bGOgNacUpavXM3GzZtZv7SSWHcvgVgMNZ0kEgkTSlpYdPfdlDvfucBfV1V0TcFunxrpKIoBs9WGopjwFFRQak/S2djKaGSE/tEkWUVl5Dl00okE0XCEtD2PZYvLKS8vo9DvweXLpWppJT5zio7aOkbDUYJDvXQH0qRC/fR2D5BEB6OR/CUrqSjKwWk1XaptNlps+ArzIBWiq7OboUAIY3YpZUWF2ML99PX10h8Aj9dPlj1K84VGBocjhIcH6Q8mSYYDdHV00tLYQFtfBIs6Sm/PAJFIjK6WLqKahpaO0tVYw8nmOIs33Mf6qjxsl0r3Biw5pRT5XcQG+ghF+mlu6cHgK6PA5+JS0ULXSCfT2CwWTNP00TcYTeSWVGBJhAiE4iixIKMDQVI6YLThK17Euo3r2LBxE0tzTYz09zCSUknF4kRCUfCUsGpJKVkZ5+eGUuMMdbVw7swZzp6vo2sojiuviIJsK9HAKLF4kv6BYZLJsW5iVl8uFQsWUFSYhdpTw/mOINFoiL7+IWJqgoG+LoaDqct3mZpE0zXMNhuGK/oQpelraGBU87Jq4ybWrd/Mg+9ehznaS3tPLy3n6+nRq3j44a2sX7eeTSsrsFmMgEqgr4v2jh6SiQh9vX2MhqKM9vYwHJPg4O3KuJI10qkkiVgSZ/Ea3vPINipzrbQf2c7ru47QFzfgcDgxKhqabqKgciV3r68k2HycF17azvGGQZxlK7lr3WL0zlPsePlFDp9rZnA0DE4PObl5ZOcUsnT9vdy/diFuiwIGE3anG6fNgsWWTZZdR02kSMTCpHUbBQVebFYLNocb1/ibJFKJOGnNQFZODv7sbAqrVnLXPfewMN+DUQGD3YHdar4ighdiRiJDdI5GMWdnYzFdzqRN9mw2PPggldZhdr/+Ii+9epj+UJxIPIY7Nx+P3YrZbMFiVEjHwiTMNrKzfVitVpxOF247JJIJrtu12WjC5vbgsFqwZmXhQkdNpVGMRgyKgqIYMZmMs+qnKcR8oKaTDAwEsVnycZmGuXD8CAePNxLRzTicdkyKzvgL+qblySmlyJmidyRA54UzRLOqWVDovJSXKBiw2s2YGaJ/cuFnQmKEujMH2HuygdGUEafTgVHTLwUjNqcLl9OJxWrH6XJg0pIkNTNLtzzAygKd0/vf4Nnn3qQjcr1E4sYxOxyYLSpNbaNM/kGqmiLQ14/V6SI7J5eqSg+B7kbaOgYJp2yUluRiySpn7ea7KDYOcmznK7xx5AJDMVAMCophLJ1CTxCJgjPLjz/bhy+ngE0PvId1Swowo2BQFFweF1f0fDKacWQVkE2C7tpa+iMpPH4/BYW5+K1Rurqa6U2ZyPLnYjPECEbSmNw55GT7yc4pZcOD7+HuFXmosSQpew5luX582XksWns3D21Zjt1oQNdSjA4PEUtaKC/Lw26emqgaTC6KSnIgNUR3WwcdAwp5pcV4nJffbqQYjNicNoYDEeKJzGcsdFKBOt58bR8X2wMYnW5cprHWBB3AZMbq8eKxWbDa7bgcZlQ1jcFXzcZNG/AlOjmw/WV2nGgkEM/c9g1kclJUtYp777+f++7ZyEJfmobTB9h++CJDcQWbw4Fx0sMTFqsFm82Cgo4aGiFpcZCbm0e2P5/K5Vu4/9715LsvB3oGqwMLRsKBAGntcovCmBSRUByD2U2W047VYsGW68eBRioZIRROoPrzyHfaMFusZGV5MRoMoEMyniCNk9y8sbJg5dI1bNmyngKPPbNwK2Yp4/jZKV68mq3veoCtd69lYWkO1nQvJ47UMpizgQfv2kBVoRuzQQcUbO5clm18gMc+9B7WeQeoqa0nRA6L1t7Lhz75EdYWmumsayOSNpLCTn5ZNatWr2btmrWsrC7EbjaAwpRCzsT/rVYb6EF6e2NoWppkdIS+8NhjURabDZPNhiWrhBUrV7F6zVpWLV9Coc9+qZ/ZRMOgENc3lnlrmoaWHKXuxAnqh7NYsbwIh/VykqgYTORUrOLBD3yczz28gNZzhzjXr2E12xjo6iWpaei6hoYBk8ODIRqlf3AETVOJRsOMBjWsVjtmk4KiqWipFKqmEh8ZYlSdWtC4dE8ok69kBRTG9qFPV/cpxDyk6+i6hpqK0d90huMdUco2bsIX6aatpwvHglVs2riSkmw3puuUuS2uLEqLPAx31nL4UD/5i5fjn1xjqyh4cwrIdsPR/SfpjaZRVQ1NVVFVjehIDx0NzbiKF7Ju3XKKcp1TcqJELEEimUJLxQiMjhK2OHBZzGQVLOaehz/EZ9+/hlDrMY42hd6x+9voK2Z5vpeuN57h1FACVdVQ03ECnac4VA/5xZX4s9zkVyzGm2jn9IU20s5cCn0ODAYHRVWredf7P8D9q0voq6mlc3AUVVfG0lVNQzE4cDp1TK4sqpauYPXq1axZt4rKomwmjuz0ubURuzOLYl+a1tqztEct5Pi8uHPyKMyx0XexjtGEAW+2A8XgJsthwW5yUbp4KatWr2bN2jUsLCsg223HEtLxLls9tu81a1i9tASromAwuyhfvAifMsy+A7UE1anpqmIwklVQjseU5OKZiwxY8igpyJnSnUwx28gtrsDacZ5j9V3EkumxvERVUdMagbrDNIZ1Fm/cysolpdhTk35tOk06EiWhaSTjUUaGkphMdpxOF2VL1/HIhz7AvdVZtBw/R+9IlOtcvm+dYsLmcJPt95Pty4LoAE21TTgrV7JxwxrK8t1MfbxrPF9SFAxZOVgMVvzFlaxatZo1q9eyYmE5WY7LK5idORR5jQy3nOF8Z5B0WkXTxu4ZTbficptRYwOMROOkNQ1toJ8gChabG5fNhLGnm/50GlVVGervI51Og2LAarNhs+i4i6pYuWo1a9auZsWySrLt137OQlxfxgPJtZBfxcKyfKxGw9jJN6YYqG2gpWsElVFa6pvoCxmp3rCCVMtJjp9oZjQ0SHv3EJ6CarLUHs7VNRMYGaSzaxBTwUKWL8hD6z7LqfouRkdHaKtrJWiw4vdbaTt5hnhWJQsrc7EYEjQePkIsbwUrVxSRam3m7OnTDESCtNSep6U7iL1wCetXFqH299Jw/jydIxEGezto743gyrIS7mqhZcTKoiWVZN/i5w3kgeRbZ1YPJF+oZzAcZbingaOHjnK+I8WKdz3Mhup87Omxhx6j2StY7ItydOdueqJxBloa6VazWLfpLsrtEdovHON4Y4DgQBudAZWc3AIcoQbOXWigq6eHhrqLDLkq2bRhDSVOGO26yIXmDvqHB2hubKInaKCieiFluWnOH6nHVLyIRSVZGA0jnH6zBvPCdawodhPrruViSzcJmw2vy4drnj53IA8kz12zeSC59sIFOoaSxAfbOXVkHycbB/Avvpf3bK7Emg7R0dFOR1+QZKCXhsYmQsYcqhcXovZ30DxsZtGSUgzBbup70ixcvAC/x4lJDXPx1BEujhbxrvdtJH/Sg5WgYLA4yXZodDWe5vD+A1xoaOHi+XPUNfXhKCwg1tdEW3+M8EgfLY0NjBjyWLqggNRwO7WNnYQjQbqaL3KhrpfiFetYXumkZtcumodCDHW10R5SWLHhLsq8l2te34qZPpCMwUpBsZfR9gbOHD3EhYYmak4eZH/NAAVL7mbbliV4zCbMBp1I9xnOt0apXLmGhSW5aAO1HD1xivaBAP09vQStBaxYWo4jNczF5i6CfXGcpXlkmeNcPHuR9v4gkZEuGlva0OwFZKc72HOmnYq191GZdWWVntGoEYv0cbamFUfxUlYtrSLbZSM10kFdUxeW/GWsWVaO1+7AahyltqGW5u4hQsP9tNSdJu6spjRboa/3HPsOt5JIhuhsOkdvykOeO03TmUZcCzezfqGFulPH6Up6KfSZGWxrJ2zJZcnCQmwGiA80cup8JzlL1rF68fjD6RMUI063G1MqwIVj+9l78iKtjbXUnD5GbTSbZdlRTtV1E43GGemop653FE/JUqqLjXScu0DrwADB4RFaak/TFLWwePV6ihPNHDtzgZ7BYXq6+ol6Slm9rAyvffK1eG2zeSC5vakT3VtIVXkOJkWBVITeriaaeuMkQgO0NNfTl/KxYWU1hpFaavqNLF68hGyHEaPZQaT1JDWNXQRDATqamhgIgK/Ih2W8lstgsuB02Yn0NHPsyBFOX6ij/mINJ+u70OzZVJVl0dfaTG1jB/19rRw7eB4lbxl3bVhOsSdFe+MxTjeOEB1o5VxtPb2jSUpX38eyXBjub+f0mSaGI2H6O5voHoWsLC/WWTy8La50KTgAHRQTvsJicrxOjBNVl4qdglI/ZlJg8VJRvYCCggJKSktwKnFCwQDhtJHcqjWsW7UEn0UlNBogGNXwlSxh7eollBQXUJCXh01RSaVVTG4/JSVFZDktoEJWQQl5fhdGRUFXFbJKKynMy6W4LA+bQQOjHX+el+jAKKYFa9lUnYs/Lwevw0wyEUc3WvEXFFHg92BSjNi9uZQU5+CY8YA2N4cEB7fOzIKDMUaTAYPZgGKw4M2vYO3mzayuKsAxngFoBgv+/FKKsiykoyMMj0ZIOwpZd+99LCty484uoNDnRkvFwGgjO6+IkqIiCkvK8Jh10poBT2EV69evYUGeC7PVjtfnxWoAzeihYvFCSnLzKS3Ox+uyoKtmcktKyfXaMCg6atpCfmUFBVkuvHlZWAwKVqeHvPw8nNP2e577JDiYu2YaHICOhgmrUQdFweErYumazWxcUYnLYsRodZHldmLSVAzuXCoXLKCkIJ/CQj92sxmbJ5eykhzsZiMWp4/SklwcFhMWPUpjYyPR8i28e0URtozn1hSDEYevkKqyQpxWC1abE7cnm6KyShYsKCHH68WEhsWbS+WCKopyCyjNdzLa08KwrZjFJTkYUchfuJr1K6rxOUykYwGGR8MkjD6W3/0A68o9l/u0v0UzDg5QMNiyWbisCp/VhMFsxZ1dyOI1m9m6aQlZtrHWU6NBJTzcQ3c4ixVrV1GUbcNggEgoxGgojtVXyvoNK6koyMLp8uA2G1ANbgpLCykqLCHfZ0VNJUgkNZz+UspK8rCbdDSrh8rKBdMPaGU0YrbY8djcVC5dTFmBH4vRhM1iwurxUbJwMWV5WViMBuxZ+eT77BjUFMmUhs1XRmVZHh5fHhVFfuxKknRKxWjLpry8BJ/TgmKwklteQWlxETkODc1oxZvtx22z4s3NJz/Hg1nRiY720zpkZsmadVQXuK7osqyY7OQVl1KS58VmNmGzO/FmF1BdtYDC0gpy7ZDWjfjLF7Ok0EdOaRl+Z5K2pj4oWMyqPAMJczaLV6xmxYICrCYIB0MEwynseQvYvHEFxf7L3dtmYqbBAYBisuLLzyM3y4VBAaPNSXZWFmY9idHupXxBFYV5RVQU52A1gtGZS2lRHg6zgsniIK+gCLtBJZ5Mo1g9FJZXkOue9MYgxYDVmUVRSTG5HjtWixWH20t+UQnlJQVkZeWRn+fDalRJpQxkla5g092rKfTasWUVUJLjBE3D5MxlyZIqcnLzKa+sIi/LRUFeLi6LRiKRwGBxk1c0Voa91a8ev9NdGiGZ8cQExt4xPJV+6Ul5RVHQ9bE+hWPNueOrK2N9Byem6ePTlIluEbqOdmlX49PHu0hM/A1jffFQFHRtiBM7z2MqKcHFKM3nTnO+08i9n/4Um/LNY02Wus7l3Y9tY2Lfl/Z7C8kIybfOzEZIZrzpe3JT8uVr89ISugYYLl2vl6+5sWljy1y+FyauxYl1xyZnbHfS/XDpnlIUFGXs+zB525o26e+Je1EZ69c7vrn5RkZInrtmPELylPtrzOR7b2z+xH15+d67lE+M52OKrqPpoCgxOupa6G47z/7zYe76yGPcXZF1jQLZ1LRjSh40aZ86oMSGOLHvVY5Fynjvg/dS6hnrTzvxcObUdGXqb3irZj1C8lXyVC2dYqinmb7edk4eOod50VYeun8tOTZjxjGYnMZNTL+cTk1OIy+lX+PpoGIY76kwnYllJh+XifRz0jEcmzy1TKJcs/wxNa3VdW3s+459WwCCg130djZy/mwTo64qHnnPVoqu8bD41N94OY+YeMZAGdsRKDrRQAs7XjhAsGwLn95Wefn7KmP7n/64ztxMR0hm/Hsz8f0uT5yaR8GlMp428f9Jy06UvcaWv5x/TTX1Gss8R5e3MTV/m5qPjn3fy9fM9PeheHumxFZXP6gKBoMBg8GAoigYxk/a2P/Hpl+6UBQFZdK0S1ubvKzh8oU+dhFd3qcyvg90SPed59n/+ne+96NnODNgZdtHPsDG/ImaYAVFmdje5W0o44nFdL9CiCtNul4zrs1LS0xK6KZec5OXmXqPTF532u1mLH95/tj3mbLtKX9PrCfXuBCT78fMe29s/qT7ZVL+NjkfG7sXFdBTNB19nZ1n+lj5wINsKPNeIzDgirRj6rYv73PsJQKT1pr4ztOmE1f+hnfO9HmqpibobzjKC68fJl62mQe2rRsPDMbXmTbtnJh+OZ2anEZOPfbXCAyYtMzUg3jFMRybPLVMcvnrTFf+mJrWKsr4OsrYdhRFIT5Qz77du+k0FrBl6wYKrhEYkLn/yduedEwvlXEmFfonzx9f4yrH9eaY+L0ZEyf9jklB2OT/T1p26r0wdfZlU6+xzHM05TdPXmtKPpp5zWTu+6o7F7MwpeVA3FjScnDrzLzlQNyJpOVg7ppNy4G4utm3HIi5ZDYtB0Jkkl5ZQgghhBBCCJDgQAghhBBCCDFBggMhhBBCCCEEXH7mQGWku5ORaBJVm/z2ADNZ+fn4ZbS5t0SeObh1ZvbMgU4yGmKwv59wUh97iMpgxZeTQ7bXcY1rfmzANB0DRoOClo4x1DtA3J5Did8B42+mMBjGRuAMDg0T1Sz4c8deQ3pLXOXtHncqeeZg7prxMwdaksHeHkYiacxWL0VlOZg1lWQsxODAMNFkGhQjdpcHtwNG+0dRLU5y8nNw2Wb+vvg71WyeOYgPd9I+GMVoseKw2UlF43hLivFajGNp2GAfw1ENX0EZWTZQkzGG+wdImmwY9SThSApnlp88v/vya9DFLTXTZw60VILAYC/DkeTYCNMuM5GhAYIToz0rJlxeD6Z0jNFwBIM9j9KiLMy3Ki8T74jxcQ6StJw8wtn6FuprjrB771kGExGGewOYfbnkZ7uuUVASVxOXcQ5umZmNc6ARaL/AG8+/xum2fgLDA/QMhLC6s8nNHnvf87TSYZrPneViyEGZ30Yq3M3B13ZwLlHIilIrgx2ttPZE8fo9KMkg5w7s4XRLhJIFRThM186kb5Z4oIum1jbiRg8uu/nqv+0OIeMczF0zHedATwxy8LXn2Vcfwmp0kleaRayvieOHD3L48HFqm9tobWljIKji9Gg0HtzPybo+XMUl5M6DCi99xuMcQM+xp/j3l+oxOUykAz0c2LWHePEKKn0WUpEBTm5/npcOXoCCFVTmmAj3NbPnpZ00xowY430cO3iU/qSDivI8LNfZl3hnzHScg0Swn5N7X+fwxW50Vw4OPcCx11/jZH0HwyND9PQOoSpmUsF+zu59gSMdLpYvL8EuAwnMaeNn10rVxvt55L3v477VFTjNeWx8+BHe+95tlHkMjIQSY4vpYzWtIyNhUmqaaHCE0VCIYGCYgf5BRoJRUuPjIehammgwwODAAEMjQWJJddK75IW4jViyWbJ+G+95//t43yNbWVqegzEdZWRkmGA4zMjwIAMDw0SSKqgpQoPNHNi1gzdPNjMUCKKavCxYsZaVZW7iwV7OHT/M/sM1dA6OEE1pU/el6yRjYYaHBhkYHCYUS6LpOulEjMBIkFgsxMjQAIPDo8RTKRKhEfr7BxgKhEiq43eQrpGIjDI0MMDg0AiRRBpd10nFw4yOjhKOhBgeGrvv4imVdCJKf9NJDh48QE1jF6ORBBnfSog7kmIwUrjiLrZuWYQl1MfZY0c5P2BkzYPv5UMf/hAf/OB72bpxBeXlS1m/YQm5ruu0RsxnrkVsu/9eVi/Mx+lUaesIoGk6yfAwPYEYiWSCga5ekukUsdAQI4qd3JLFrFyxhmXlfqxvd9Q2ceuY3JQuXs+WVZVk201g9rJg5V088r738r5H38X6lYtZvu4uNlS6kYGH54fxlgMFk9mC1WolOdDAmYYEKx7cQIklxvE3X+a1eiMblxeiqFGajr7JjpMjlFY6ufDmsxxt6Ke39SJHj56gqTuMMyefLJtCqKeBo/v3c/LseeqaOomb3OT6vfOqKUpaDm6dmbUc6MRGemlsHsJXtZRFZTk4rBZMRgNK33GeevlN2gdDNF84wcEDpxm1FFDiTXL68H5O1HYRDweIpzW8OW6aDx+hXs3GH63jwJEL9I8MMxJLY/flow60M5J2UrWwBENkgAsnDnH4+BnOX6ynO6iQnZtFvPMcr28/wnCkn4vHjnD0bBNJRaPnwjH2Hz3Oufo+3IVl+F1mEiMdnDi4lyMna6itb2YgaSPH7yTQcIQd+0/QMzLIxROHOV3Xg27Pxh5r49jhQ9R1jjAyGMfi81OQn8WdXEySloO5a6YtB6QjtNTVEvMtZVWpi6G2i5w828XCe9/F5mUVZHs9eDwePB4nZoOBxHAn7b0RfOUV5EnLwRTBtlMc685m25Yq7GadoeYWWoZsrFxVRKSjmYaOIDneFKMxGxVVBUTaL9AaMrJ03VpyzUl6O1qImLKpLM+XloPbxExbDtLxEF1tHaScBVSV56BHRmhu7MZRVMmiBYU4bFbMJiMGg4HRpsPURYpZvaJUWg7muGufXVsWFX4n0bqztMR11FiA9u5BjEVF+HSVaHCArr5RvAtWc9/mRSiD5zlRU09/bztH9+2jKZXDhm33sSQnzZkTZ2kbjEvrgbj9pMP0tNRy5vRpauqaGQwlIB1neHCYwbCRJevuYnV+nFM7dtKacrNsxVJyHFZs5evYumEl2dY00VCIYNJAXlkVVaUF+PMWcs/mdVT4JgUnapSWM/s50xJiwdp7uW9tEQOn93K6qY9wLE6ot4W6YQdL1q0ljx52vrqbdsdSHrh3HZbBOk7XtRFNRGg88DLHe0ys2fYgmxd7aDy4ndMtQZKJMP39fYyks1m1cSO5+jC1NbXEPWUsW1RBbk42i9auY0lpHtJTX8wlOinC4SAxYx5luV6kEvutM1iyKC/2oA000xWJMxwIYPCXsaK6jHSol97BMEODEazOHPK91y5CiDuUGqWvo5Ezp89w5nwt3SNRxjuFiHniOne2meLF1RSaujndECI8PMBQzMSSyhwADCY7RdXLWbV0GUvWrGPpwgKiQ0P09XTR0RXFpCcZ6OpgJK6jJBLE4nHpziBuP2qUod4OmhuaaGnvJRhNowMmu4OKZatYXL2Ee9ZWYDAMEIia8fl92M1GTJ4CCvKysU5UwStG7B4fXrcLm8NHQUEOLuukUkq0n/auXkZTMNLfSfdwHIsdwpEEaVUHWxEbNq5iyZKlLKwuxZK7mAc3LGVB9XKWLLAyGgqTiA9y/kwPikFhuKuNnqCGw2wiHgyhYsCVlc/y1WtZUr2ExRV+jHqEhNFFdpYHu91OVl4uWe65X2sq5h9dUdHRUaQQ87YYFAu5xUVY9EFaGwcIjIziyi/CX1SOPx2mt6ONobiCO7cI77WHkBZ3KjVOoL+blsYmmls6GAqlUKXwNq9ct4xg9i9gTYWN1rMX6ejvI+0spizbCeNDWlvMJowGBTBgUAwouoqqpkmrJqwON25PFoUVS9ly73rKc671BhghbhFzNgvX3MO7H3mYB+9ZS6nfjjL+tiGb1YKiKFjsDoC3l0CqKmlNxWCz43Z78PhLWXfvg6xfmI/dpIDFhsNkHBsi3mDA7nFjNY7dVxarDR3Q9SSJhAGzzYXH48WfX8GmBx9kZYUPIwomowWbbWyIebPZiKLo6G/nOwtxB1Aw4nS4sGkjdA4GmXg8R7wFBgO23GKKTEkaL9TRF0zhz84my5dDgSdJd3MDAwnIycuSFpq5yuylYtkG3vXwQ7z7vntYVOjmFr1LQ9wi1y+rGz0sW7sYvfEYpxr78RaX4LWPdZXQ1ATD/X30DQww0NFGZ88oVp+fbF82PpeBlGbGV1hKWWkBBflZOKzWOf/6OHFn0nUNTddQ02nS6nUenjeasSoG1OAwQ6EQE298G2PAZAAtGWJoNEw0oV6eZfPg83gwKzpOXx5l5WUU+PLwe2wYp6mBM0zzfI7BmEVJkQ01Ba78EsrLSyjIdeN2O695MxtNZnRNJRwIEI4lmPSthLjzKUaycksozFY5e+wYNRfqaOvooL29jY6OfmLSJ2IWFEz2PKpLzPQ3nKUr5SLbl4XL5SW/2MNgexujSQe5WTbJz+cqxYjV7sDtGctbrGaDnOt55lrliXEKtgVrWerooLVPpaSkGNt4BKlrOqGBNo7te4MXt++jK57N8sVVFJdWsHJtMeHWI2x/5VW2v7GLE7XtRKYUooS4TSSHqDu5j+0vv8qrL7/JmcYeEtcqS9hyWFKZS7rhALuPnGYoenmW0eggL98HwUb27D9K63By0np+Fi1bTm66g4Nvvs7rr29n594aekMz7W6nYDRns2LbBiyjZ9nx8its376DA8drGB5/odjVOHJK8Fl1Go8f43xrH5O+lRBzgILdV8z6DespoYOXn/kZTz3zDM8+/wp7j9czmp7ZHSbGGEw2ShaWY0iEsdh9+Dw2FKuTrLwi3AYVW1YOfse1H3QVQty5xt9WNGmCxY6voJjSolwcBkilUqSTKv1NR4j51rFpw0JcJgUtEaazqQ6lYAXLF5Tgzytl2drVVJfkYLPa8OUUUpTrw+vx4sspory8lDyvnWkqSOcseVvRrTOztxUpGE0WPNnZ5OTmkJ3tw5edTW5+Lj5fFh5fISWF+bhtJhSTDbe/mPKSQtxWG9kFOWTnZJObW0BBfh6+LB8lpYXkZzlweLPw+7PJzs6hsCCf7CwPOQX5+H0e3L5ccnPz8Hk9uL3ZFC1YQFm+D6fdji8nj8JCP3aLCYvVSV5+IQV+NyajAYvDTW5+Cfk+Ny5/MSX5PjxuD57sPErKqynN82C3O8jKLaAgJxubyYDZ5sSXW0CePwuH04vf5yPbn0NBQR4+l20mNQO3LXlb0dw1q7cV1V5k2JhPsdeGzeXAmZVLSUkx+QUFFBWWUFZeSdXCCvxWncG2JtoHk+RWVsrbijIE205xrN3E4sU52Mx2LCYDZqePnNxSFi9ZSIHfhUkxYrE5ySksYkF1FXk+F0ZFJTQ8QFtzKwlbDgvkbUW3jVm9rai1iYBmJycnG4fNhjvLR35hPl7neOuQniYSDNBVf4KWRClrVsrbiua68RGSryIVoO5iE91t9dR3hVi69cPcszwPE5AK9rD/lacYKniAR+5diftOfi/iTSIjJN86MxshWdypZITkuWumIyTryRGO791DQ8BMcWE167YsZvqxYJMMd7Vw9mgNIwY/q7ZsoDLHPeeDg9mMkNx/5lVeOBWkpLKUJSs3UJE9w/sqNUrduXNcaOjDt2Alm9dUjz0/JW65mY6QnAwPcfHkQer70+RVr2bVonJ8jozrJR2m+eJFLlw4R9izgfe9exlu87WvKXFnu3ZwkA5RX3OOlu4RPBUrWLmoBNf4CBhqfJTGmhNEvItZVl2Mba6ntG+BBAe3jgQHc5sEB3PXTIMDdJVoJEw8kUYx2vFkOZg+pdVJJWJEwjEwWXE4HVjmQa3nbIKDdCxEMJoEgwm7y4PdPMMCvp4mGo4QT+lYbHYcDuucD7ruFDMNDnQtTTwaIZZMY7A4cDlsmDKfd9NVYpEIsUQKg8WJx2UjcxExt1w7OEBHUzU0XcdgGHuLSuY8FMO0D04KCQ5uJQkO5jYJDuauGQcH4ppmExyIuWemwYEQ07lOkK9gMBrH+yxmBgBj866cLoQQQgghhLgTXSc4EEIIIYQQQswXEhwIIYQQQgghQIIDIYQQQgghxAQJDoQQQgghhBAgwYEQQgghhBBiggQHQgghhBBCCJDgQAghhBBCCDFBggMhhBBCCCEEAEoymbzGCMni7QiFQjidTgwGicHeaalUCk3TsFqtmbPEHBCPxzEajZjN5sxZ4g4XiUSwWq0yQvLbpGkaiUQCi8UiIyTPQ6qqkkgkcDgcmbMESN5xHUokEpHg4CaZGLpeUWQU6XeaqqpomiYJwByVSqUwGAxS6JmDEokEJpNJzu3bpOs6qVQKk8kkFVTzkKZppFIpqSC7Cgmark3RdV2Cg5skEAjgdrslk7sFkskkqqpit9szZ4k5IBqNYjKZsFgsmbPEHS4YDGK32yWwf5s0TbtUQSV50PyTTqeJxWK43e7MWUJcl1QnCCHuONIaN7fJ+RVCiFtHggMhhBBCCCEESHAghBBCCCGEmCDBgRBCCCGEEAIkOBBCCCGEEEJMkOBACCGEEEIIARIcCCGEEEIIISZIcCCEEEIIIYQACQ6EEEIIIYQQE6YNDnQ1RTKZJJlMoWoygPI7S0dT06TSKtcau1rXVFRV4xqLAKClU6TU6y0lJsz0uIo7z5XnduxeG0vrLqd3uqaSujQted17UdxqOmrq8jnU5GS9ZVr68nWflrx/ftFV0pfuo/F0L3MZMW8ouj41JdXiQc7sfIqjnUnSupOFG7Zw/9oFWIwyYuVsBQIB3G73rIauV5PDnNy3m/OD2Tz63rvJd1szFwEtQfv5szQGrKy9azk+89W2H6PmmR+yK+dj/O42H4lwkJhuxeuyMdcHIE0mk6iqit1uz5x1FTrR0R7qTp+lT8tn05Y1ZFvm+EG6g8ViMYxGIxaLJXPW9HSNzpr9nBv2c++2ZbgMCvHRDk4dPc6Fhj5SBsDuY+WGe1ni6uG5Zw4QtVsxYcThK+euezeysNg3fW2KuKGCwSAOhwOTyZQ560q6RnykiT0v7qIlBkaDl2X3beWuxcVcLVWcLzRNIxaLYbPZZpgHpTn36g/Y15bGoGjkrnofj2wsxzmD0yBuP+l0mlgshtvtzpw1rXjXcV7aeZjukBGLUSFn8WYeuGsNfrvkg/NRRl6XpOvIK/z80DB5VYup8CV54+WXqO2PTF1M3DSJoQ5OHHqNXW/s52JvKHP2GC1Ff2sdp2taCKla5txJkrQeeJlna4LoWpLWY6/y8sE6ktdaZZ5KjnSw76Wf8pMf/4Sdx2sJp6TOZG7RGGip4fiZVmK6DokeDjz7I3bWj5C3YBnLli2hLM+DGgww0tfGiePdZC1dxuKqEtK9Z9i+/TBD6cxtiltN1zUinefo9yxl6ZKF5Jj72fnCHjrjksjNXoThYStVy5ZQmWdg/4++z/6upNQezxPR7lrOtA5hz69m6bJlLCjKwTqTmFLMSVODg/QAB3ddJG/rozz8wAO8570PUhW5yI7awJTFxM2SYrC7C91QyKoqOF3TRmJilhqju+EkLz79FM+9uIP6rgAT5dfR1pMcP9tCKDFWekn3nuHA6XZik7oTDbef4tWXXuPVl1/khZf30hW/NEsAqZEOYvZili5dTLbVnDlbzDG9e/+FH5+w8ugHH+eRh7axbdv9PPzud7FpZTEmjDjdpazftpUH3nUfWzaUE6y7QP2QFJNuN4pixFt1Hx947zbuu28b2x5ci6OtjrqALoXaWXOy/v2P8+5t27j3vm1URE5wqj2BHMj5IRqOoLvyWb1xC9u2bmPd4lJc0no+b00NDkYHaYw4qK7MwWpUMLrzWZIL3YPJKYuJm0ONDtJw8QxqwTa2rM6l/fhRWqKAlqSv8RBPPfUse2s6aG2up+bUBQKRODrQfeTn/OTFQwxExmp54hee53vPniSYUi9tOxkbZWgkRDgwSG/vAPHLswTgXLCFDz/2PlYtyMdmkARxbouw/4c/xv3AJ1lX6sUyXjtmMluw2a1MPvsKYEAlkooRT02aIW4PioLJmU2WdayLkRaOMJJSMM+0N6GYxITT68CgaaSHumm3rGBztWvsJhBznqZpDF/cw0+++098/YfPcLotIM9azWNTg4NEnIjJjNNonJIeDAeu0r1F3EBpgj1NnD/bTfGmdVRWLCQv3cr+8yMkIsOcOHKUIc8qfucPfo/f+vVfZOuaShzmmfeALli8lQ8+tIn1D3yYX/7c41Q5M5cQYr7o5OzZbNYsL7xKuUcjmQzS09ZOY+15TtT04F60ltV50y8tbgNampHO8+zccxLrum2sdBuucm7FtfTX7+Kb//BP/NsrdSx616Ms80lsMF/4l7+bT3/842xdVYbWc5L/eno7df0xpIPe/DS1dGkyY9FUktrUy8Fhn+ahWHFD6akYvfVHOdqgEug8zenaDsKjXZw+eIq+cIiR4RQF5QspdCuYLE7ySgpxWi2ScAsxaxpqOsJQ4Gr9qdMEB+vZ+dyzvLjjEEHfcj7wnnvImeGzz+KdpWtphuv289or2+n2LOPD79tMjrT+vSWunGru2baVLcsKiLfu4IUjA5e6r4q5zVmwkC0PfYTHPvoJPv3oRpS+Zhp6AsjLDuenqcGBJ4sCPULvaGLsgkiF6Rt1UFkq1cw3l04yMkzjidOwoJpYewNt/RFc/lxSbXuo6YxiNCmXAwFNIx2PktDGXjVmd7oxGC4/ORQJBdDlNXRCXKbrpCNhEuhAIY+8r5jTu48yOu1tYsKbu4SHHv8oH//ox3j80a0sLfVlLiRuB7pGvO0IP3z6IHrxPTz2/odYViT51VvlyC5j7aZN3HX3Fu4tSbJ7dw3Rq4TQYo5SzGRl+XAaNeKpFPL0zvw0NTiwFbCyKsnO/9lHfyxFoPU8NUox9y2WjPGmUpOMtpxmZ3MBT3z5t/ni5z7H53/5i/zmFz/BCnMf5y704XAbaKk9Q3tEIxpq48T+swyMxtABV2ERqZFm2gcTqKPn+a/nzhKNX/lqFV3XGRkNy3vAxbyjaSpdPW1kV5bjVLK497f/iuKz/8D3nt3LUBJAZaS3nbrzrSQxYDa7yC8ppriokByPA+PMe/CJd5CWCnD82f+isfRjfPDRLZRnOTHJuXprhg6w/UQQXddJ6SOcO9ZNxbKF2KR9eh4IcfFiA03NAfRUmLoL5wkY3BTm+JjayVzMF8Ynn3zyyct/mskpLcdw8X/42Us72XGmn9Xvej8PLCvBJM20sxaPx7FarRgM186ttFSCphM7OWZYw+cfXordaMRoNGJ1mUkMtNIbdLPh7rXQdZSf/M/LHDveAW4XvsJKVq+uItuVRbBhF6+8vpvdp0Isr7YyYl3KfXeVMnTyIHV5D/Kx1V6s6gj7dr/BoRPt5K3bQP4c7i2mqiq6rmM2z+bNQ2mG21sZTLlYvKIat1mu+dtVOp3GYDDM4P3tcc6/8AO+8f2n6M2/n0+/ZzM5TjMGbxmLS23UHXqdp1/czq43tnOsvouCpZvJMQxR35Ji1YNr8Msl8I5LJBKYzebrppsAajrIqZee52BdHaf3vcH27dvZvu84LVoZ6yuz5vx4Ltei6zrpdBqTyTSjY6krTfzg/3yLV/bvZNe+o6grP83nP7CKbNs8Poh3ME3TSKfTWK0zyegj1O17nZ9+/ye8tncv9aN2tr7vA9y9MB+bSc7/fHTFIGgAsYFWOobjaCYHBYWFZDlmU8ASE2Y6CJquqUQCA4yoTkpzJw9YohIJDBJOWMjyOYmP9tM7FMZgcuB22zCabWT53Jh1jeBQF30jUVSDl5IcCCScFOQ5ifZ2MmgpZIHfgpYI0tXTTzxtpaCiFPccHtxm9oOgAWjEgqNEUga8Pi+zeN5bvMNmPgiaRri/m56RCNbsEkpyHBjGS4y6mmS4v4uB0bEXBpttTvKKirGlwwyOpMgu9jOTbFXcWLMZBE3XUwS6OugLT3qjnsGM019EqX829/7cM/tB0CJ01HYQARSDEW9hJQVzOZOY42Y3CFqa8NAgfQMBUijY3Fnk5eXguOoAq2KumzY4EDfGTIMDceO9teBA3ClmHhyIO81sggNxdbMPDsRcMrvgQIippG5UCCGEEEIIARIcCCGEEEIIISZIcCCEEEIIIYQACQ6EEEIIIYQQEyQ4EEIIIYQQQoAEB0IIIYQQQogJEhwIIYQQQgghQIIDIYQQQgghxARF0zQZBO0mGR0dxeVyyQA0t4AMgjZ36bpOPB6XQdDmqFAohM1mw2w2Z84Ss6BpGvF4HKvVKnnQPKSqKtFoVAZBuwpFUTIniUmUwcFBCQ5uEk3TMBikceZW0XVdEoA5Ss7t3CXn9saRYzm/yfm/Or/fnzlJTKLoui7BwU0SCARwu91Sa3MLSMvB3BaLxaTlYI4KBoM4HA5MJlPmLDELmqYRi8Ww2WySB81D6XSaWCwmLQfiLZFqbSGEEEIIIQRIcCCEEEIIIYSYIMGBEEIIIYQQAiQ4EEIIIYQQQkyQ4EAIIYQQQggBEhwIIYQQQgghJkhwIIQQQgghhAAJDoQQQgghhBATJDgQQgghhBBCgAQHQgghhBBCiAmKrut65sT+0y+x89wwKZOfdXffw7Jyn0QRb0EgEMDtds9q6HpNi9By/hxtQRcb1y/GbTNlLgJ6ioG2FrojZqqWlOMyXu3sJGk9uJMznnv50Ir5NYR6MplEVVXsdnvmrGlpQ/XsOnSG7uEYtqJl3Ld5DfnuaY69uC3EYjGMRiMWiyVz1rS6jj3D3rowKW3s74r7P8O2soz7RtcI9dRz6mIXBWvuYZF/ZtcOQHKwgf2Ha/Gt2cbyIi8WA0CMi6+/xOiiR9lcoVKzYz+RpY9yd8mk/apxOuqPceBYC0kA7JQuXcemjVU4Ly+VYZgTO08Qy1nMhmUeGvccIFK5jXUVbswzT2puW8FgEIfDgck0m/tPJzbcyfmOAAuqlpDtMmcuMO9omkYsFsNms804D2o/9ix7LobQAZPdxar7P8KKXCVzMXEHSKfTxGIx3O4Z5v2hLg4dOUZjdxBTdgnr129kYaEbOfvz0xWlymjTHv7lu6/TEYzQ33CMHzzzKoPhsWxL3HzqaCe7Xvge3/zOC9QPhTNnj1ETtNUcZeeeswyn1My5k8So+Z9v8497htD1FB0nd7L9aCPJa60yL41was8JGpr6iSYGOfnaUzy1u4FAInM5cadqeO2fePZ4B+FonMTgKb7+5F/wZtsV9SJomkY6nUbVrpx3dSk6j+/nv775//jOm7UEE+MRCCEO/vtf88yZEVRtgDe/9y2eqVWZsmU1TMPhnbz+Zg0jiQSRnnp2/eT7bD/WRHTyclPoqOkUaVVH1wfY8/1v8vypIeLz9b7W0gzVb+fv/uL/8rUfvkbnSCxzCTEjOg17fsiuuhHiiQTJZIq0xtTrVcxRYRpOneFsTQfhxCiNJ3bw3GvH6AvL2Z+vpgYH2hAHXtiNtv7j/PIXfoXf+pUP4W07xOu1w1MWEzeLRqCnm6RmZWF+knMNg1zK7/U00dFB2lpaaG3vYjSSZKIIkgwNMjAcIqWO3chadJi+oTDjfwKQCPVxZv8bbN9znOa2HiLztSAxLSv5q7fyic9+nl/54m/yxQfyOXTyFP0BKWTMFYrBSPXWx/ncF77IF3/zj3nCt50f7aglGQ/R1zfI6FAnbV29aO5SVq3bSIlLZ3igl9FoemwDaoLAQD/Dofil+26CHuunpkfh7vs2MHrmDB1D0Sn33vUYTV6WbX6Ez3zhi/zKb3+aDeXQerKB0SSk4yH6Optpbm6hs2eAaFIFsli6YT2rF+ZjNV9RvzPPaCTjTWz/79dI51bjd82shlxMQ4fRGGx+3xN88Qtf5Jc+/QnW5CtSczwvmPFWreVDn/olfuWLv84X37eekd46WvqCXNm3RMwHU3OWcD81XUZWb6jEYzFiy61gXU6SC51SSHonaMlRWprqULLvZutaH3VHT9KbHAsMgr21vP7Cz/nhT57jhRdf48ipBoLxFDrQffin/Oi5A/RFEuhA4sIzfOfpEwQmtSoEus5x5HQ9jWcPs/2Ng/TEp+x6nnNQUlVCts+OARM2q5lkKomqZRYDxZxgLWBxEQy0dTHYeIBv/fO/8LOXn+eVnfs4e/IoP/vhs5xsusjOn32Hl462kQQSfRd5+ac/Yvf5vvHuPxM0Ap0t9KaMrHzfL7A+dojD57uIp99ajqqqKimTGYfDgVVP0VV/ild+9lOee/rn/OhHP2X/hS5SeogDP/8uLx5uIZJ8a/uZOxRM1kLu+cSv8gvvWUNRlnQnejvCw300HN/NG7ve5HhbUFoN5g0recWFFOS7MWLAbLag6SqqKnngfDU1OIiGGTbaybZbxmYYLDitCgODoSmLiZtBIzrYxoVT53Gvvpdliyox95/jaFucdCzI2SN7ODNg5eHHPsHjH3wXC/x2DPrYjRsb7qSzZ5hkeuxvNdhNa/cI6UldI7LL1rJt03KWbLiPD33wAUpm3p16Xon01rHzaDfLFleR7bFlzhZzQe8Jvr83xerNVRgiQ7ReuECw9D4ef/QBKp1Rutq7iZstuIxR6k/V0B9N0N3cQEtvAn+BnylPOaSjtDQ2Ezf6KC5bw/1r3NSdPs9QPDnjgpWaDlCz/0W++y9f57s/eo2RnLVsvHsZXouGKauEDQ9+jE9+7AMs8qSpPdfIqJpiuKuN3pEwqVl1f5qLFAxGD+VLF5Ftkzrut0VRWLb1caqsw7Sc2813vv0DdtWHZ3wdi7khGezn+Mk6nN58CnMcSNPR/JTRrUhDUxQMytSrwWyezYNh4i3R4gy113Khs5hVa4rJK6xgQVaEo4fqGY0O09oyiKdsJesWFlJcWkHV4krc9pk9jAlgtrvJ8rpwenzk5mRjm++9EaYR7m/g2R88TbtjJZ95z1pyndJFYa7Q1RRHf/RX/O5v/jq/9vs/wPf5r/Ir95dhwIDFt4htqyrJy8nGMd5NR3Hms2DJUvSRi7Q3t9LU2ks8Zy1LilxTEs1UNExbVxeekjJyHHYWbLsHa/tpmvvizLTcrihmPP5C8rPMtJw6RL+hisVVfoyKlaJcC73nX+Jvv/r3/PjFw7T1DBOXdn5xk6z70O/yK5//LJ/5hU9yr+EA//1iDRG53uYNNTXM7qd/wuFOO+9+8G7Ks6wSG8xTU4uIbi85ySgDscRYv1otTSJtxO9zTFlM3HjpaIjWo9s51HSCb/zJ7/Dlv/hnXjl8kY6ze2kYTmAymvB5PeOBmw66dqnvs9FkYnJ4r6bHuhuJmdKIDp/huR8/x3DB3Xzi4++jKndqIVDc4Qwmqu59nF/63C/zhS/9Fr/2wXdR6lBAUVDszmne+GWmpHIRBR4jTRdqaR0MUr5pLbkZ8Xg4UM/ZwzW8/l//xB/+3u/wv/7hJU53NHHuYjuJtDaj+9BgdFK+dAPv/fin+exjDxA//hwH6wJEei/w3He/zY6+LB759BO8/761ZDuk24y4eQxGEyazBYe3hM2rShgdGCKVuZCYg3SS4SZe/f53ORUu4X0ff5z1C4swZSaLYt6YeuqduSzOi3LqcBOhpEp8oJkzgQLuWe6Zspi4wfQ04b4GjtRbeOKvvsb/+tKX+MM/+d/82Ze/yGL9PCfPDWNxQHtrAyNJjVRsmLa6ZkaiY88YeAuKIDlKIJJGj/ex/0gtyeT4g5STd4NOLJ5En1GRZR6JdrHjZy8RK9rABz6wlapCrwQGc4yiKPgrlrF2wwY2bFhMVkbr6HRsBRUsyjNSf+YkvamFvGtdbsZ1kaLrzBn0JY/y23/4Zf7wD7/El7/8f/i9j62ju/YMvcHZFauMVjdLNm5hRU6Mw3sPUt/eQeuIwvJ7HmXb2kX4HSbk6UBx8wzQ0DgC6KQifZy52EtecQESjs4DiSGOvbqder2KRx97lFUL87FKZDCvTT37Bh8b3v8wOXU/45/+9qt85d9exLz6Hu4qkuDgZtKScdrPHuaMbSPv31RJZeXYZ9n6NawqcdDf1EXBotW4+w/xN1/7G/7pW09xpjMIjL1Jwl2xgdLUSX7wzX/kq998jraIEf2KxkAT+YV59J55mW/960+pv8pbUueloWaOnq1l/97X+e/v/BNf+5uv8tWvfouDLUNceiulmHcMFj/VCwtJhPtRyhdRZs/ILKMtHDrWRt6iZSxbsogFlZVUVi1kw5rlKIOttA8Er3iz0bUpmH2VbL5rKbGGXRzrTJHlMXL0v77Bt771nxw63/mWH3QW4np0vZ7/fPL/8dWvfpW//5fvU5fzbp74wEocMwikxR0u1MfFixc5dHQ/z/7wG/zD1/6Gr371X3i1poOIpDnz0hWDoOmaSqCthsb+OKrFTXnFAgp89iuKmuL6ZjoImq6lCfS20pnMYkVFzqRjnWSku4PhuJ38Ai/h/g5a+0YxmVxkeW0YrR4Ki3Ow6in62+toH4iimvxU56v0JXwsrPARbLxAm2MR60tsqOFBLja2E9cdLFixlOw5XCU0q0HQ4sM0NLUwEExhuHTwrZQtWUK+145RLv7bzmwHQRtpOcGQcykLch2TzrFOMthHU3eMsupynEaFVHiItp4QvvIS/FYTyfAQHT1DWPxllGZnXEvpUVqb+7DmFpOX5bx0naixUVo7B/AW5JFoqSVWuJqqXI2Oc3UkilazMHvSBaUlCfT1Mqq6KCrJxgyo0SHaOnvBk49bC9HZ1odqseF0OrE5fRSVeBhpbiLhKqY410zvhTrieYupzJ0b1+pbGwQNkuEhOoej5OUX4bJeO82dD2Y/CNoI5w/VElIMGI02ChctotAzN66p+WhWg6AlQ3R2tNHRH0K5FAyayV+wiOJcNxa5BuadK4IDcePMNDgQN96sggNxx5ltcCDuHG81OBBTzT44EHPJrIIDITJIpzIhhBBCCCEESHAghBBCCCGEmCDBgRBCCCGEEAIkOBBCCCGEEEJMkOBACCGEEEIIARIcCCGEEEIIISZIcCCEEEIIIYQACQ6EEEIIIYQQExRN02QQtJtkdHQUl8slA9DcAjII2twWi8UwmUyYzXN4mO95KhQKYbfbZRC0t0nTNOLxOFarVfKgeUhVVWKxGC6XK3OWgEkjQYvpKNFoVIKDmyQWi2G1WjEYpIHmnZZOp9F1XQqPc1QqlUJRFClAzkHxeByz2SwF2rdJ13VSqRQmk0nyoHlIVVXS6TRWqzVzlgCpOLwOJZlMSnBwk4TDYRwOhyTMt0AqlULTNEkY56hEIoHBYJDgbw6KRCJYrVYJ/N4mTdNIJBJSQTVPqapKIpHA4XBkzhIgecd1KLquS3BwkwQCAdxut9SA3QLSrWhui8ViGI1GLBZL5ixxhwsGgzgcDgkO3iZN04jFYthsNsmD5qF0Ok0sFsPtdmfOEuK6pDpBCCGEEEIIARIcCCGEEEIIISZIcCCEEEIIIYQACQ6EEEIIIYQQEyQ4EEIIIYQQQoAEB0IIIYQQQogJEhwIIYQQQgghQIIDIYQQQgghxAQJDoQQQgghhBBwtRGSY0PtdI8k0BQrOfn5ZLmsKJkLiet6KyMk63qa0Mgw4ZSZ3BwvZuM08ZuuEY+EiKYMuLNcmJWrnR2NcF8XQ5YCyn3za6jw2Y6QnI4M0TsQIJbSsLr95OdmY535aRPvsNmOkBwdaKVnNIU2ntq5C6spcGXeNzqp6ChDgSj27Dy8tpmP0KvFR+ntH8XqL8DnsGBQANIEOjtIekvIc+sMd/WRziohzzlpv7pKZHSAvoEQKgAmXFl+cnM9XH3vCQa7B1FtXnKyLAR7+kh5Cshxmcf3e5mWCNHdP4ziKaLYO5EGaCRjIYKjKu68bKzTJDG30lsdITmdiBCIJHC7s7Cab7MfdQu8lRGSwwOt9ARSABiMZrKLKvDZMpcSd4JZj5CcitDXP0AwmsJgdZGTm4PXPr/KDeIy45NPPvnk5AnJwQae/c/vc6C2hfOna6gPwNKqUqwmSWxnKx6PY7VaMRhmfuzUaBfbn/4BP9vRTfWqRfgd0xR+tBj1h/ew++wghQtLcV/13EQ49K9/yT8PrONDy+0MdzbQOqKT7XVeUYiYa1RVRdd1zOaZJG4pOo5s5/U9Bzhz7jTHajow5VZQlO3AOMeP050qnU5jMBhmXOg5/cPf5Zu7OunvbKWhZg87zicoX7QY/+TYUdMIdddz9MR59Nxy8l3T3HvTUuk/+Qbf+vo3uOhazoqyHGxGBQjw8pO/x37X/WwqD/LsV77KweyHubvEeLmyJT3Kqe0/4T9+speOgS7qT5/h3IV2LCWl5HodTP/rRjixcz/tCRcl+VFe/puvcsSygVVlbiyTV9A1Eq37+Kuv/j1vtHvYtLYalwkgTuf5Xbz41Fly1q0i23J7XeSJRAKz2TzzdFNXiQzUsv2553j2WCvlCxbin/G5m7t0XSedTmMymWZ4LHVO/vT/47tvdtPf0UhLRw/2sjUUuRWpHLwDaZpGOp3GarVmzppGgr6LJ9m+fTfHL5zj1Jlz9Ce8VJTmYTXJ2Z+PMlKMEDWvvsBpZQ0f/oUn+PQH1tJ58DUOtgSmLiZumkh/J53drUQG27jQGcycPUbXiIYCDA4FSV3Z8DOJSrCnjeahJLqeov34dl473EByrIpSXKJjzl3Gu97/CZ544uMspZUX95xhMCoHaq6IDrXjWPYwn/zUZ3ji059kQf2/8P19XUy5ewwG3EWLufeBB1g0JWq4jlSAc/XDuO1xjh26wEAoMb7dNIH2RnqCKXQ9wVB7K73hjHV1lVgoib9iE49/5gme+PRDFKQbOb73HKNjFbjT8LHugYfYsqoMmznNcEcrfaPJS60ik+mJCF0DBmJHv8nP32wkDoBKMhJgoGeImJa5xp1GJxlr4sVvfpvd5/vo6h0knrrjf9StoUN/Xw8VWx7jM595gk9+9MOsyJXAYH7QSVvzWL/1/TzxxGf44Ppc6s6dpLEvyjWLGGLOmhocxAc4djrMkvs2sKCogPLl67jLO8yBhtCUxcTNEqO3qxujcSV3r7Zy/GANl458coQTr/+A3/6lX+RXf/vPeOVEGxNl1469P+C7P9tDz3ihJH72x/zzfx8ikLpcuG0+/GP+9ps/4ef/9tf87pe+ygmJ9yaxULh4MZWV5eQXllHmM5BOpEmrki3OGQpYXT78ubnklq3jkeUa5w6dpat+L//0T9/ntf/+U379T77C87uO8MzPXuF47Ul+/u9f49WzA2PrB5p46d+/zVN7a8ks3yeHOmlNKaz/2CeobHyNY/UjJGYRVyqKEZvLQ3ZuLgWV5RQXZqONhkilYbh2D9/4X5/liSc+x5/89b9zsiOAToxjL/6Q10+2EU1dJ+dWDNgKVvMLn99EzY9/wKHmaOYSdzyj2c+qRz7FZz58D+V+aTF4O0KhKM4sP7m5ueT4s3HMpOFVzAE2iqqrWbqikoLcIqrLClHVEOFILHNBMU9MDQ5Gh+k2OSn22jEpgMlOlkMhGLpqFZa4YXQSQ53UnDiEvmIbG5aWkWw+yel+FT0V5vyhF3nuUC9bPvuH/Mbn3o870EsoEkEHwj21XGzsIjYeDKQHGzlb30dCvVxwKFz6II8/eg+bH/oYv/lrv8Ai16RdC9DiDPZ20nruBCdGC9i6aRG5rpk0xYs7TiLIyYs9eEtyMYy0c/zNn/Fa+iF+75c/yUp3kLrzjYR0DWWoi6NHzjGoavS1XORseydWXy5T2hT0OC31dURidkoXv4v7l8c4dfYC4cTM00xdTxEa7qOjtYXzR45zujdC0Zrl5NrCdMcsVG78Zb78O59jobmPQ4fPE1TjdNfW0NwdIDnpHr8ag8nOkk1P8J5VKgf2HGYwOZdq1hWMZj/L7t5MiceEIrfs22IhzRvf+BK/8qtf4A+/d5CBcDpzETFHKYqCoiho6SitzZ1oqg232440Hc1PU5NSVSWtGDBlPOAaDEem/C1uAj3FSHcDtQ1Glq5fQmFJNaW2AQ4e6yQcHub8hTYcVZt4/70rWLVmPZvuWY3fNfOuD3ZvPqVFufgLy1hYXY57ds/6zXl6rIsD21/gxy8eIma14bFb0OdSGWqe0zWNztNv8vILz/P8f3yH18yP8YUPLceEAatjEe9593oWV5Xjc4w9D2D0FlC1vIp01zk6u3ppbukmblvOisrsKc8BqLEwrW3dWArKyHe5WbP1LpK1p2kNxKft5jMdNR2k/sSb/Pg73+Ab33sOw4pP8uDGcsyKg0WLqqkoUmhv72RwIMxA7yDhq2w4Hujh+O6XeeGF53nxpZdpHJmYo2B0FrH54QcxdO7iwJku0tJXQGRSFB79ox/yL3/3V/zJbzyG7fC3+IcXmkjKpTJvaGqMuoO72H6in7WbN7GowC6xwTw1NTiw2XGlkoTT6Sl9cX3eGT7tLt4yLRGm6/RO3jhdx3Pf+Wv+4V//mwOnz3Ph6CE6QlHSCQP5BUXYTQqKwYjVbsNkMMiNe4MYnBU88rHP8ttf+CTbigL89Ok9NA1GkPhgrtBJJ+NEo1GinhX8/v/5MlsKraAoGL15lDgzuqMYnFRULSXLGqHlYi3NvQO4V26iaPKbhoBouIOao8fZ/8qP+buv/BVff/YY5+tOc75hEPUqhfhMRrOPVVs/xK/8zm/woc3l9BzbQ8tQivRoN8df+wk/23mUjtE4qbSGpmlTn5OYRNdUEvEo0UiUaDRKavL+FQO5C1ayqcLFob3HGEyoV92OmL9c2UUUFZVQufguPnqPn8ZzzUTlSpknRjj5yk958WAHC+5+L+/etATnVV92Iua6qWfem02pOUhXXwxVA2L9XOj0sWqZY8pi4kbTiYf6uVDTy/2/8ySfe+wjfPRTn+fXPv8xcgJ7OVYbxmhRGRkZRtd1UNMkRkcIqSk0IMufj8l8uXAz1NeJps6i07MAxYTd4cKdW8r65dXEe7sZicQlW5wjFIOR8g0P85GPfoyPffJhlmS5GXvbpQIGQ+abGQAFd3kVFV6oO3GWgZFCHry/AltGNB5uuUAo524++ZlP8fhjH+ETn/4NfvE9lTTVnGEgNrMCuIIBs82OL7+S+9/9LioSdew5fJa2jlpO1Y6w9KHP8sQnPsT9m5fitV29E7jNV8xdD32Ej37sYzz+2EdYnD31y1pcuay77yEqgkf50f4OZvTlxPykGCEdRVNndg2LO12Chh3Psrs+xaYPfpSHtqzA75rJW47EXDU1TzQWsekuD6/964840dzG2UOHaC9byLvKcqYsJm6wdIzBs3t5pW8VH318DatXr2b16tVs23YXa70mWho6yMrLouvcQfY0dNPYcITXXjnK8PDYw0K2kjLSHfs5cLqVrouv8LUfXiB8xWtIFIwmI10dbfT1DxHPnD2fhS/wzEtvcvh0O729F3j2+YMUr9lIVf7ULiTizqYYjJhMJkymSa8SvQaTrZhVi7LoaDtNR/4iVnsy+uJpAxzYdQJn9Wo2b9jImtWrWb12A9vuWk2su5HugVnWuSoGbCUr2LypgrYD2znXFieqRunp6KCv5QIHdhyiL3j1Lp6KomA0msZ/o+nK1xUrRnz51dy/oZQzzz1Lzey+nZjjdP0A//i3O+np7qL57Kt8a0eIRz72EN4Z3S3ijjbQwO6TvaTzFlGalSY40k9vbz/B2OWxYcT8kjHOgYJ/4V2sMR/mp//zBkf7bHz4I4+zotjNVcfZElc103EO1HSKno4mEgs284FlhZeSYsVuw2yMo+k5rLt3G8VaK88+/TznGlSWbd1A9cJqFi4oxJdVRlaqhX27drGnPotf/sw6jL5q1i0rIDXQT7JsEw9Ue8j2Wmk/d5A9R9oo2rCJ/DlcMTCrcQ7MMHhiN6+++BI79x8nseBdfP5jD1LqMch1f5ua7TgH0YE29JJ7WFHsxnip1KyTjgcZTjhYuWYJHrMBNRFhNGFmwYolFDisGK0mVN3O8nV3syjfmbHRLmrbUizasIEFBV7GWuAN2C0mQqNhfGWl2MMBXCvvY1WRiZGeEbwrtrA6f1J6oKeJhsIYPcVUV+VjUcxke+3Ewr2oBctZW+LiwqvPc7RpiIJla1i4aDGLqvJIDg7jKFvOomIXob5hPEs3s7zYOf4dJm0+GaYvYmfNmmqcBgXFZMWZW06FdQRr6TrWr1rEpbHRbhOzHudgXDoZIZQyU7VgAV55zc5bGOcgyImf/pgXDh7idGOS9//hn/H4MjfTjcMpbn+zGudAjTHU08jxo4c4euAA+/fvZ//+U8Rzq6goyMIqA/7MO9OOkIyuXYoWFenX/pbNZoRkXdfRAUNmaXR8uqIoY8uMny5lfLmJf3VdG38fsYKijPUYMCjK2HQM47WIOro2vr05fl5nO0Ly5ePHWEePK6pdxe1ktiMkM34fZN5e6DqaDoph4n3u+th1oGT8PX5fZdI1bWzZKTMntgHjGx+7JzXt0v8ny7ynx9af2MDl+RPfaSwt0Ma/k3LV7Y4Z+32Z6Yquaejj33va1W6htzpC8sRxn3ou5q/Zj5Cso02qJlauek2JO8HsRkgeS3MyS4NyDcxf09cJKAYMhrGPXBfvDEVRrsjAx2dMCQQunZeMAoly6ZyNTZ/YlqJMBAaMFSbkvE7r8vEbO4ZijrlaJqeMBYKT7qSMAvP439Oty3iQfcXMiW2M3W8Tsyf/f7LMe3ls/cv3+KXrckpacHm/V9vumOnTFWVie5kz7miZx1HMzqRr7ZrXlJh7xtKcyedfroH5bfrgQAghhBBCCDHvSHAghBBCCCGEAAkOhBBCCCGEEBMkOBBCCCGEEEKABAdCCCGEEEKICRIcCCGEEEIIIUCCAyGEEEIIIcQECQ6EEEIIIYQQACiJRCJjTDxxo0QikVmMTilupFQqhaZpMxs6XtxxEokEBoMBs9mcOUvc4aLRKBaL5S2MkCwm0zSNZDKJxWLBYJB6wPlGVVUSiQQOhyNzlgAsFkvmJDGJEg6HJTi4SRKJBGazWRLmW0BVVTRNk8LjHJVOp1EURQLvOSiZTGI0GuXcvk26rpNOpzEajZIHzUOappFOp6UQfBVOpzNzkphE0XVdgoObJBAI4Ha7JZO7BZLJJKqqYrfbM2eJOSAWi2E0GiXjm4OCwSAOh0NaDt4mTdOIxWLSej1PpdNpYrEYbrc7c5YQ1yXVCUIIIYQQQgiQ4EAIIYQQQggxQYIDIYQQQgghBEhwIIQQQgghhJggwYEQQgghhBACJDgQQgghhBBCTJDgQAghhBBCCAESHAghhBBCCCEmSHAghBBCCCGEAAkOhBBCCCGEEBOmDQ4u/uRLfOYTj/HYE3/Es4dbSWcuIG4aNTXE7v/5Dl/5l+fpHU1kzh6jxqg7uJ2fPbefvuS1zk6Eg9/8U37n2d7MGeIq4l0n+Y+v/C++vesio6nMueLOlqR++3/ynZfOoupjU7RUgrP/8xWe+MRjfPwXf58fvF7LVe46cTvTdUZajvHDnz1DU38kc66YofoX/4rHH3+cj37qs/zZ883o4/eJmA+iHP/pP/A7n36cx379z3jmYBO6XADzVkZwkKZ793f5m/2F/Oqf/TX/+zOreeO5n1LfE566mLhpUoPtnDt7iNNHTnJxMJg5e4yuEhrqp6t7iIR2rZs3zVDzec52x9G1GDUv/RvffPoI8WvFE/OYlg5y7vheXn3hEC39o6SvdWjFHUUL9fDs3/8ef/S3/8qBlmE0few+6j/zMv991MAX/+z/8fuf2kDdG09x8EI/curvHFo6wNmX/47f/L3/y8/21RNJqJmLiJnQz3Lkwgqe/Nuv8Vd/+kmMz/wl/34iJgHCfKClaNr1NE/XJnnk1/83X3q4jGM7d3K0LXSpIkXML1ODg3Qvu3e0s/6x97N+ySLW3nsva9QWXr44MmUxcbOk6O/qxmgt466VFk6f6iA5MUuN0d1wipee+R9eeHkn9d0BUtrYrNHWk5yoaSGcGCv1p3vPcuhMB7FJd/Vwxxl27T7E4b07eOnVvXTHL80SAOgMNdZworETW0EuNkXJXEDcwdTeMwz5HuQXPriVPJsRBdD1JD1trTgr17B64RLWbtjM8gI7XT0Dk+67JMO9rdS0DU7doLhNaKST/dRfVPjgL/4ia8rsmQuImVKW8PhvvJcVC6pYVL2Zd200cPB0owTK80GkgyOnBslbvI3Nm1dz19ZNFIc6Od7YTuiaFZBirpoaHIwO0pxwUlmShcWoYHDkUJ2r0D8s/SveCWq4n9rzJ0mX3Mc9K/PoOnmYhgigJei6uJefPv0S5/rSxMJDNJy+wHAkig70nniOp149xkA0hQ4k6l7mhy+eJpTOqEHTdfTxj5hKU3s49uYx7CXrWbGgAGPmAuKOZl7wLp74zHuo9rkxXYr7TOQVFhIZGiSYShIc6mYgksKf48c0sUgqQlvtMV473iKFpNuSAbO9ig/+1m+ybaEbm3nanrJiRiw43FYUdFQ1Rm9nEKfTmbmQmINSwUH6dJXsggI8JgNGfy4lHoX4SJyU9DSYl6ampMkEUaMJh2msZg1FwaBAW9fAlMXEzaASHGih7nQ7ZRs3U7lgITnJJvadGyURGuH4keOEc9fyK599nMcf+xD337uKbIcVAC2dJJVKXyr062qKZEqd0hzsK1nBXeuXsGjNPTz6yFYKbZfnCWh+/b+oUQrYuH452fZLRUMxVxjNWC1mDGMpGwCKwUzB6od5rLSWX3nsUT7xx98lvfwRti3NmxQc6uhamlR6vJlO3HYUxYjFZsUkrX03hJZOcP6l7/LTvrv49feWYpDDOuelk0mSBg2LzYIJBRQFRQnQ1R8lcakZVcwnU4MDxYBB19EyapbLCnKm/C1uglSU/vpTnBxYSL5nlFjajN8R5+yB4wzEAgRGVPz5ZXjsRkxmK06PC7NxPIibAUUxYFAMKAYDBsPkItJ8pzF07Mf84+4oVUtX4CFMKBolHBhiJJyQ/pZzmK5GOPbCD/jpwFp++PQrPP13v43j4v/w8tEWUqNtvPrPv8qWB97LF7/01/zX//sNtmzZwkf/+F850XKVZ4GEuMOlEkPs+/E3+ZcdVp782q+x3GvOXETMRQYFRVfQNQ39Uhupj6IcOxZLxrJiXpgaHGTlUJoO0xGIjj2MmY4yFLaRkyMJxM2lk4gMU3d4D91qC//5f/+Kv/nmjzjcNEykZQ9nO5PY7SasZgOggK6hJuIkNQ0dsNodKIph/JbWiUVCV+86dJXJ81eEnlED/lA/O3/6Tf7v33yb7cdOc/iFH/DMwWbCCakxnqv06AiNTSGWrFpElttGVuki1i3Opbu5mbC1nEd/99848OYr/Pvf/ylP/O9vceDAAZ7+m19jfaUnc1NC3Pn0CEee/xZvdBTy5a/8AStyXVKJNE/Y3dn40waGB4aJAMSijOoWXG4bFumpNy9NPe22fFYtUtn/3AG6RsP0N5zmlFbOQyuypywmbjA1RaDlFG+2V/Plb3ybb3977PPNr36JTc4+ztb0YPMYaTh3nOaRKIHBFk4ePMtAcOyZA29JBfpoK609IaKD5/nxC2eITfdKIgVGRgPEE0mkyDvBzYp3f5K/HD/m3/6nP+dj99/Duz/7JX754aV4bZIyzlkmI3Z7jPq6LoLhGMG+Thobe7H6srBcqg9RUAxGTEYpJom5Ta97iv/crvHYL3+ECo9OPJ4gmUxJXjEfePKozjXQfPYEje0DdJ49Q4+tgFVLK3BffkhLzCMZJR8H6z75m3zE9Tp//MXP8oWvvcLiB9/Lqhx5KOlmUlMJ2uovEFp0L1v8l6fbCstYsbwEbXCYBevfwyrjeb70xSf4nT/5IX3uHPL8XkyAp+oBNmU3880/+3We+OMXKVu3giyvA0VRMDvcuG1GFMVK9dIlRE//hN/9g69wTF5ANT3FiNXuwGYxS63ZHGS0WLFbx54pMdhyefAXHqek4Vl+9YlP84Xf+RuaHBt45IGVOCYeOrB6WLLhYX7poRVyPdzmFKMRm9WKUZ49eGsGGjh5fj9/8Ruf5lOf+hSf+tQT/NFf/Tt1IWlunvNMPjY99jhbnQ1840tf5A++f4jidfewttSF1IvMT4p+1f4n4u0KBAK43W6MRnn3zTstmUyiqip2u7zacC6KxWIYjUYs0iF2zgkGgzgcDkwmeTHA26FpGrFYDJvNJnnQPJROp4nFYrjd7sxZQlyX9JkQQgghhBBCgAQHQgghhBBCiAkSHAghhBBCCCFAggMhhBBCCCHEBAkOhBBCCCGEECDBgRBCCCGEEGKCBAdCCCGEEEIIkOBACCGEEEIIMUGCAyGEEEIIIQQASiqVkhGSb5JQKITT6cRgkBjsnZZKpdA0DavVmjlL3IbMZnPmpNtKKpXKnCRukkgkIqP63gCappFIJLBarZIHzUOaphGPx3E4HJmzBMgI7NehRCIRCQ5ukomh6xVFyZwlbrJ0Oo2u67d9oXM+cjqdmZOIRCKZk64plUphMBikADkHJRIJTCaTnNu3Sdd1UqkUJpNJgoN5SNM0UqmUVJBdhQRN16aoqirBwU0yOjqK2+2WhPkWSKVSqKqKzWbLnCVukcmFPVVVp8ybrXg8jtFofNvBnxRAb6y3e14BwuEwNptNavbeJl3XL1VQSR40/6iqSiwWw+VyZc4SIPfEdSi6rktwcJMEAgHcbrcUQG6BZDKJqqrY7fbMWeIdNrnl7EYlN7FYDKPRiMViyZwlbqGZtJJe7xoIBoM4HA4JDt4mTdMuBQeSB80/6XSaWCyG2+3OnCXEdUnoJIS46XRdv26hUNz5Js7ztT6Kolzz4/V633aLkBBCiLdOggMhhBDvmMxgIfMzOjpKKpW6ImiY7UcIIcRbI8GBEEKI205m0DDbT2awcDM/Qggxl0hwIIQQYs7JDBZu5iczWLjeRwghbmcSHAghhBBvQ2awcL1PZrAw048QQrwTJDgQQggh3kGZwcJMP5nBwrU+8oYiIcRbJcGBEEIIcQfIDBau9VFVFZfLhclkuiJwyPwIIcRkEhwIIYQQc1A4HL40Wvy1PpnBwkw+Qoi5SwZBu4lkELRbRwZBu30oisKNTmZkELS5SwZBuzFu9iBoEiCI+ehG52W3KwkObiIJDm4dCQ5uH7dDcNBz8kXOjOSw9u5N5DmMKICeCFFX14SloJoyD1w8+CLn+saWNzr9LN5wH6uLrFM3pCboa67hyLkWIvE0ACZ3HsvXbmBxkRcjaQZaazjVZWDdmmXkuGY2mJeeitPXWktzJIsNayqY+qt0hlrP0RayU7WwAq9tBoVmXaO/5Tw9iWyWLi3O2N7tTYKDG+NmBwfi9iYjJN8c0wXFNzp/ux1ItyIhxJxX/9Lf8eRf/A3P7q0noY0l5Fp0gP2vv8qJlmESkREOvfw9jvfo2GwKo52H+cE//4CjbfGpG0qGaTx9iF3HmlHNFmw2I0PNh/jOP/yQAxd6UFFQjCasFhPT5CFXpSVCNBx5nZ++eppIZj6j63Sc2snLO47SF0qQOXtaukrriZ28uqeW6IxWEEIIcT2ZXfKm65Y3F0hwIISY+ww6BSsL2PP0C9R2xcam6Tqapo3X+uiYHD5Wbn2UD3/44/zC+99DtfsCZ1oHMreEptgpWrieRz/0YT784Y/y+S/+Gh9eEuQnL+6nbVglp2wF2zYux++cWavBGB1dU9FUbdrCv66pqKrGbCqodF1D1abfnhBCiBvjesHCdJ/bnQQHQoi5TzGybP2HuMdXxw93nyClZS4wia6hqRoGoxmLabokUoFLibwBiz2H+x+5C1NXK02D/ZzZ9a98+f/7Vy70Rhlq+xm/uPEe7rprMxt+7buk0hrx7nN8/Q8fY+PmTdz97vfx5882k9DGavvjXSf47p99ms2btvH4Z/8Pr9V2kpqyb414oIHv/v6nePjezay//3P8x87zxFSV+MBZ/vlPPs+2u+7m3vs+w8v1Ya71M4UQQtx4mcHCdJ/MYOF2Cximy/mEEGLu8VbykU+/n9ihlznUEr+iRj0ZGuTMnld49pn/4enXjqMXPMCD64ozlroKr5/cYB/doxGSlzY8wvNf/hoVTz7Fnv27+I9ffxCTUSFt8PPQZ/+M7bvf4L/+/COEXv0upwZ1SIzS3DtC/of+ngN7nuH3H/Gy879f4ELw8jfVIy385B++Sd/6X+d7L+7mha9s442fvsS59i5e/tn36C55jKd2HGDPzn+koO08V/5KIYQQt1pmsMD48wwz+bwTJDgQQswb/hXv5vMrwvzVn/03DZdL8TDeDSedDNPbcobdJ3pZeN+7KZ7h8+y6pqIpOgpwuTzuZsmqYhp3/oxXD7RSvrgURQFrlp3UUAv/+Q//wHf/5xAjqVHCUcDsZeGye3hofT4mu4fSRVXkGUL0D13eT6L9LEebOmk4/CL//vWv8d2XThCqq+FMZzsXGmOsWbcGv1PBaMpl/UObcYx9IyGEELexzGDhWp93IkiQ4EAIMY+4WfvEb/P+6H/wn6+1TuleZPXks/6hj/PFL3yRz6w38MwPX6Q9OZOOORojLQ30Wv2U+lxYLqWqVjb8xjf4gw9Uc/LHf8rvf2MHkVSSmp3f5dsvN7L0gY/wkffdR7ljfHGjEbPdgQ0FUDAaLVitRpRJqbSaSqIaC7n74ffz8U9+kk/+4m/zD//+l7yn0oXLYifL68IwHhBoalq6FQkhxBwzOUi4WaYPDnQNTRv7zOYBOHFjTG5muqqZLDNeGzr+chZxXTr6+HWvyUGbs0zuxfzut/6I/h98hb1t4w8nT1AUzL5S1j1wH6WDr7PzcOfY8wBT6GP3laahqWnCIw28/uY5CjdsZWlRLiaU8eJ5jIFoFmu2vY8//8s/xnNoL0cScboam6i8973cv2kxhV7T5YYGLUU0MsJQKEk6GaVvcISUKY/S7Mt7duaVUWjSiZmcFFZWsXBhGT5fLtnOQhyOMI3NLcTTKulUgM6aOoLzqFvRpXOi6fPoV99Yl4/heP6fuYCYB65ettDlmpg3rggO9HSCtuOv8cLzz/LMC29wurmP9FUuFHHjaekwjWcPsWNfDaOxqY8iXqKl6G9t4Mz5VkLpK0oukyRpO/gaz58PATpqKkE8mZabe1oqgb4mDrz+Ks8/+xzPHahlNDr2Hntx5zNZXdguV+lD4Uf46Ady6avrxWxQQDFgsTmwGBXARE7ZCrasL+birlep641evmcUBZMhxUDzKV59/jmee/YZnvrJK7Rnb+aTH1xPgROMJjM2mxWToZuf//N3efbZZ3nuuWM4Vi2kyGKjsmIFw8ee5efPPceruw/So9kxGQ0YjRqhnjO89MLzPP3z59l1pp+yLZtZ7FYwmq3YbGaMhWv59CeX0b7jFZ798VM899zP+fH2GhLY2bppI301O3jqmed47oWXOdGh4rGY5kHHIp1EsJ8ze1/i2eee57UdB+mS97e+JR3HX+DnTz/Lc889x0uvvUH9kBzH+URNRunvqOf08fP0BROXpmtqimikk8PPb6d+KI46ZS0xFxmffPLJJy//qTJ0dgf/9rMDGLJ9JHub2HO2g0VLl+JzzOa1fAIgHo9jtVoxGK6Iwa4qOdTI8z/5Ds+82UfVhlWUZE3T6VmNcfHgTnbXBFiwuhqv6WoD3ITZ98//m38M3s8vbnDSdmInhzp0FhTnYJz5V7ojqaqKruuYzTO7bhOhena+8Cq13WnMViO4cqkq9mMzX+3Yipn6i7/4C6YkMzdAOp3GYDDMeHAnizObgvIlFGfZMIyXlvMXraKqtIplK6vIdttxenMpKVtAtsMIZjtZeSXker3kFeThcVrGCtmKAYvNgsWkoKVUNN1IXtUG3vvIXZRm2VBQMFmc5BaUUVZSTqF1kL5oGtVWyiMfe4QlHifu/FKyjGGiqp3idY/y7lVVlFSU4/fns3DxcqqyoozELCxYcTdb11VhMxsx25zkFpVTUphP8eLFFJh1YskkKc3J6rvXUJafTUHZAvxWldFQFMVQzSOfvp/q4lIKc93M7CjdHhKJBGazeYbppo4aG+bkiz9kZ20Ym8uOxewgv6IMr3nuh0XXous66XQak8k042N55L//lNcGKyj1GsFgIqd0IbmO+X0c71SappFOp7FaMwZyvAotGab+4Es8/fTP2HNmkNKVKyn22kFL0Vt7hFdf+Sn/8XfP4HjXB1iR68Aol8UtdzPy1glTR0jW+nj+q9/iwpIP8ZsfXIs9dJF//stv4PzY/8ev31M0ZUVxfbMfIVml5+wunn3xdQYSHgq3fIzPP7IUE4CeYnSwj87uQTQ0OmtOcG40j0/88nvJjfYxGLeTl+fDajKghbppCzooKVR47Y+e4O8XfJ2XP5nm5f/4JvsSK/nFD93HwmVVeOfwAKSzGyE5Sc0z32DnSCmPvPe9LC5wXipAirdPuQ1GSBZ3jlmNkKynGT73P/z517t54v9+gQ357iubw+epWY+QrOv8/MkPMvzIf/Krd2fPahA/cfuZ7QjJ8Y6j/PyFI4SVKIP9Lh79pU+xodyHFuln9ysv0WtNc+TvXmXjN7/LJ1b4Jz1bJW6Vm5G3Tph6eoOD1A1YWbSsAIdJwewrZ0ORRnNXxiih4qbQkgFamurBs4171/q4ePAwXcmxDDDYc54XfvxvfOWrX+eb3/4e2w+eZzSeQgfadn6Lr/9gO13BsRcXRo9/j698dw/DqcvdYvoa9vPSjmOc3P0C3//PZ2iKTNn1/Jbu4OQpIwUeJ92NR9m54zAtQyGkU5EQtzctnab75A4SD7wXS91hdr25l5MtQ9J18i2Kh4ZoOLGHHW/u5kTbqBzHecRWspHP/Pqv8YGtq/DbxltKAaMrlwc/+kt86oPbKHJa50E3RcEVwUE0TMBqw2c2T7kARsPRSX+Jm0Mj3NvM2RMXyLprE0sWVOMLN3CwIUwqGuD43p2cTyzg//zLv/P1v/0TtpR7MepjxVdd09AmR4/6+AO1kyZVbvo4v/25D/Cez/wef/vVP2Kd9/K8eW+4n7ZQC8fOnub4kWMcfOUp/u2Hr9AwEEGV3PGGuJlvVRDzl67FaLnYxeiFvRw8eoxDB17jJ//5Mw5OM46FuA4Flt79QXLDFzn85jP849e/xxsXRuWNV/OFomAwGKZpMVJQDAZJw+eZqcGB0YhJ1654ANkgF8VNp6dj9Ded4nSTBbsyTF8ghVnt58TB8wyFA/T0RihatIrqbAMWexYVyxbiddglir8RYlHCo6O4l27jl3/zD/jT/+8TuM68zL4zvcgzyW/fO/HaNTE/6XqMwLCG7qrg8d/6E778W19km7uZ/3rpHBGJDmZJYePH/oQ/+dM/5Y9//7d4j/0Y//3KBaI3qduCEOKtu9n56dTgwOUhV40yEE6M1ZiqcUajFkqKZtZnTbxVOqlogOYTh+g2GanZ8QKv7zvFQDTNcN0eLvbFMBoM2KyWsZck6jpaMklKH3utmMVqQ5n0MvREPHrT+qHNSXYHWb5SFhfn4rCa/v/27jw4yvqO4/j72TO72SSQC5IQEAxnRAYBpaL16hRb6lFvaS1aHWytHR0cRzutnU6tY/tH0USLVyliGWyrlD8EFSmCqBWxkgAGAiFcCQGyCbn2yLFH/whbkzXUDeTYZD+vmf1n99mdzM7m+3s+z+/3+z7YMvKZ4GzF528nqMtmfaq/C5okFsNkJT07lazJM8i2m7DaUskbm47b3YAamp4tA2tyDhdNzcbjrucMPfNEZJBExtH+PM/rHg6co5iS42f7ljIa24J4j1ew05fDZVNTux0mfSwUwFNTzscVLu769W9Y8uCD/PzhR3j8oUVMoZKSMjf2ZIOjleW4W0O0+WrZv3sf9Z7OqfPUnFxCPjd1zR2EfFW898Ee2tq/2mwsTBivr7Vff1BDUuZEZua0UVW2l9qmNpqOlLGrYxwFeakkxbAnUmKjGQTpayZzKoXzplK58R9UnAribznJ3iMepl5cQLLmVXuphl273ITDIdpbqti28xh5BWPRKnOR+NPf53Hdw4GRxuzrFjDu+Du8sqyIolVbyJx7ObOyFQ76UyjQTs3+3VRlzeOqiS5crs5H9oSJzCgYTbu7gfzCixnt38Pzf3qOl19dT2ULuJxJmAHXuDlMtO7nzVdfovgv73LKnE5ysh3DMLAmp5CaZAas5OTn4zmwhRUr12pDclemTOZ877ukNm7n9Vee5dmXtpBy5QIunpRNUgxNPiT+Vb5bzNJnllJUVERR0VJe3HgI7/+5+3Gw5SQl761mw7YyjlUfYNO69WyLvmHauQq1Ubf/36xds52G6NckJobJSu6cm7g9v4KXi4p5YcXrVFgu4u4rx6njWC+Fw4d4Y+mzFBcVs2z5G9SMu557rp+OQ99jQjGZbSQ57Fi+0v7WjCMlBbtFP4jBYhhGv3Yo6qp7K9PTGg98wueHWwja0yksLCQvPZZ2kBIt1lam4WAH9dX7OdKRxayC7C6vtFNffRC3x0lefgYtxysoO1SLxTaSUaNSsSSlMSY/GwdBTlTupLyqgQ5rDjMnGFR7M5g2MZ2GvaVUOi9g3ngHQU8tpbvLae5IpvCS2WTH1v54SOpdK9PONn4nDuxgf1U9raZMCmdMIXekU9fM+kFfTIn2tpXplievYGV4ETfPzsNmOcmm194nf/EfePCbo6IPBSDU2kRVRRnNjjGk+Ct5fdUGMr7/GIvnjow+9OwFWqjYsorn1yax5Pm7GacZFehtK1OAcBBffSXbdxwmYLWTO2km0/J0QavXrUypY8fGEurCYUxWFxMvms24tNj+vyT+9LaVaacw/uZaTpxsZWReLiO63d/KQ8Un+3AUTic31aaWwQNsoEJBRI/hQPpGrOFA+l6vw4EMuHMpdr0NBx88dRUbprzAEzdMxmFpZcfv5vP79Of4+0+n01FXwabt+2kPgmv0eGYUTiXT6qP6QAWnbKMZ2b6PVSu/DAftLW4qykqprPVhsY9kysyZjHV6KS39gmP1XiyuTKZeOJPzMp14D35ISe0InKFjNKZM55rpo6k/upvPSo8StpixtFay7v0UHlE4+J9ehwPpUe/DgQwnZxcOJB6dy1h5thT+RGRQDNr+A28VH++zMm1SJqFgkJrPt1F64jgnqyvY+u5bbN11lHaPm9J33uCtj8rxdHlrwN9E6Zb1rN+0jeqTbo6X7+RAXTO1+/ayq6KcY7XH2fnR26zbUkpTW5DaD1/g6eLlfLj3GA0tftpOfsqqFa/xaYWb49WHKNla0u3zRUREIgYjGKBwICKDbSACQjgYoHTNMzzxi0d5+LdrSbvuce6bl4fJZCZt8uUsuvV2brv1JmaPDnGo8jD+jhDtrX78bYFuPW8aq8r4T1kDk66+lXvvvZdFi+5g1rhMknOnMH/BLSy843a+M3ss9YfKqfOECLV6aOtI4dIbfsDNc/MpfeMPbA9dwuL7f8yiH97M7ElZnXdAFxEROW0g9xf0ROFARAbNgHUwMkyMmfktrp8/F9epMr4IjWeEA8JBHw3+E2xYVkzxsj/z3vY9NPgDPbewDYepq9pHozWdgvNysZkMLCOyyHAYBMJN7Fj3Ji8+U8Tq9R9R1eilPRgCw0zG2OmMT7cTDjVStrWS/DlXkJNiYLG7GDt5PFr4JiIiRIWCwQoGKByISLzoz4BgmExkTpjOnMsX8NADCzi2/Gk2HvLiq9nJ6jX/omPatSy88zaunjWZNCtn3IhuCgcJmeh2QLC5io1vr6O0YyzX3nInN377Usak2DDTeZzZZjs9O2DGagOL+fSbQyGCPg993ANJRESGsMEMBREKByIy6AZsBsGcRNaF17LkmgZef3kNB2sbqDkBF8ydSm6anea6ozR2cIbbZxmMzJuArama0vJqgqEwbccPcuTESaqqvGRNGE/B+XmEGg7h9ncQfacRkymFWd8oYM/md6jyBfE2H2bzPz+lKeo4ERFJPP0+/vWCwoGIxJXItGpfFkrDMH/Z996cxqyfPEpO6Wo27HNyxZhqnv7ZXdz3qz9S0pRKqtXAAAzDhOn032EymTAMSD9/NvMvm0DZa09y5223cv9jK9jXlsVl09P4bOUv+dE99/O3sg6cFktncTVMmEynP89kY/JtT3FjymYWL1zIA4/8Ff+FBWR8pZ+4iIgMd13HunhYStSVWpn2I7UyHTxqZTo8nGlDVm9bmfrqj+C15ZDpstGZOQK4j1ZDSjZOGjlR78WwJuF0OLDZHaQlW/E1NdBqcpHqNPA0ezG7MhjhMAi0ejnldtPcGsBkdZGVk4k94MFddwp/wMDhSsFmtpI2Ig08x3B3jGB0lqtzmVE4jLehhpp6PxaLk5EZSbT5zKSPTqNrR/FEplamfUOtTBObWpnGt8jFr57Gt3igcNCPFA4Gj8LB8NBX4UCGDoWDvqFwkNgUDuLXmca1eKL5bBGJWwOyD0FERKSf9LR8KN4pHIhIXIsEhMhjqPMGwuxpDrL8YDvLD7azpzmINxD/g4WIiMQuei9BPO0p+DpaVtSPtKxo8GhZ0fAVCQhtbW1DbllRewiWlPh5vzbQ7fmrsi0snenArss1WlbUR7SsKLFpWdHg6HoBayifXmsoEpEhJRwO4/P5sNvt0S/FNW8g3GMwANhcG2BJiR+PZhBERIaU6JntoTRDcCYKB/3I6XRiUpvCQWGxWIbcVWWJnc1mIxgMDqllRkd8ITb3EAwiNtcGOOLr6dbMicXhcKhu9gHDMLDb7fouE5TZbCYpKSn6aelj0YFgqIeCCC0rEpEhbbhM44qIyNDQNRQMRwoHIjIsRM8iqLSJiEhfSLTxReFARIal6GJOAhR0ERHpG4k8K61wICIJY7hPBYuISO/1dDGJBB4rFA5EJOH0NBCoFIqIxL+e6ve5Uv3vTuFARBKeZhRERAbW2Z7kq073P4UDEZHTYhmsVDJFRL4US93siWpp/FI4EBHpheiBUCVURIaj6Fp3JqqBw4/CgYjIOYh1AI2VSrKI9KdYa5ZqUeJSOBARiSOxDtwiImdDp33ydRQOREREREQEAFP0EyIiIiIikpgUDkREREREBBQOREREREQkQuFARERERERA4UBERERERCIUDkREREREBBQOREREREQkQuFARERERERA4UBERERERCIUDkREREREBBQOREREREQkQuFARERERERA4UBERERERCIUDkREREREBBQOREREREQkQuFARERERERA4UBERERERCIUDkREREREBBQOREREREQkQuFARERERERA4UBERERERCIUDkREREREBBQOREREREQk4r9lW3ETS3GnxwAAAABJRU5ErkJggg==;" parent="1" vertex="1">
          <mxGeometry x="700" y="590" width="530" height="175.07" as="geometry" />
        </mxCell>
        <mxCell id="GT2eNSXrST343m5673Si-20" value="User selects SRN" style="text;html=1;align=center;verticalAlign=middle;whiteSpace=wrap;rounded=0;" parent="1" vertex="1">
          <mxGeometry x="240" y="160" width="110" height="30" as="geometry" />
        </mxCell>
        <mxCell id="GT2eNSXrST343m5673Si-21" value="RAE" style="whiteSpace=wrap;html=1;rounded=0;" parent="1" vertex="1">
          <mxGeometry x="420" y="735.0699999999999" width="120" height="60" as="geometry" />
        </mxCell>
        <mxCell id="GT2eNSXrST343m5673Si-23" value="Fare Code 11" style="text;html=1;align=center;verticalAlign=middle;whiteSpace=wrap;rounded=0;" parent="1" vertex="1">
          <mxGeometry x="480" y="647.5400000000001" width="60" height="30" as="geometry" />
        </mxCell>
        <mxCell id="65FAwVAs6RzOUpti4-IR-1" value="Text" style="text;html=1;align=center;verticalAlign=middle;whiteSpace=wrap;rounded=0;" vertex="1" parent="1">
          <mxGeometry x="700" y="470" width="60" height="30" as="geometry" />
        </mxCell>
        <mxCell id="65FAwVAs6RzOUpti4-IR-2" value="We spoke with Julie and the thinking is there will be some mapping provided by CASC that will allow CCIS to map to a fare code in Master Data" style="text;html=1;align=center;verticalAlign=middle;whiteSpace=wrap;rounded=0;" vertex="1" parent="1">
          <mxGeometry x="490" y="120" width="320" height="90" as="geometry" />
        </mxCell>
      </root>
    </mxGraphModel>
  </diagram>
</mxfile>
